<?xml version="1.0" encoding="utf-8"?>
<!-- Generator: Adobe Illustrator 26.3.1, SVG Export Plug-In . SVG Version: 6.00 Build 0)  -->
<svg version="1.1" id="Layer_1" xmlns="http://www.w3.org/2000/svg" xmlns:xlink="http://www.w3.org/1999/xlink" x="0px" y="0px"
	 viewBox="0 0 1000 440" style="enable-background:new 0 0 1000 440;" xml:space="preserve">
<style type="text/css">
	.st0{fill:url(#SVGID_1_);}
	.st1{fill:url(#SVGID_00000077283750365394218100000009844043298408642230_);}
	.st2{fill:url(#SVGID_00000182498726388611301450000013003748017686826420_);}
	.st3{fill:url(#SVGID_00000116225153080060591050000006366526119517131711_);}
	.st4{fill:url(#SVGID_00000152945047202562194420000001877318069848512678_);}
	.st5{fill:url(#SVGID_00000118374078505127374900000009698987974574321831_);}
	.st6{fill:url(#SVGID_00000175286839799283041890000000685007117293588097_);}
	.st7{fill:url(#SVGID_00000090974326114468269570000001774481308855808167_);}
	.st8{fill:url(#SVGID_00000150093897547721643030000014360111081291744165_);}
	.st9{fill:url(#SVGID_00000108276543996595544580000009958000266954847886_);}
	.st10{fill:url(#SVGID_00000021822220404112365160000003246960066888187312_);}
	.st11{fill:url(#SVGID_00000072279279388720569120000005071294876925809800_);}
	.st12{fill:url(#SVGID_00000126295090097554115140000001698234958557586842_);}
	.st13{fill:url(#SVGID_00000105405742714692199020000003618406160686413223_);}
	.st14{fill:url(#SVGID_00000080183474239902090140000004215952483797401001_);}
	.st15{fill:url(#SVGID_00000054256173944390697550000013105738011693955207_);}
	.st16{fill:url(#SVGID_00000024686497176251984740000003684343969736212654_);}
	.st17{fill:url(#SVGID_00000135689645998472276830000006546679440669739945_);}
	.st18{fill:url(#SVGID_00000138545088022925725380000016190283929197099190_);}
	.st19{fill:url(#SVGID_00000092436789046265942580000005424545008443473826_);}
	.st20{fill:url(#SVGID_00000152977741540750370310000000088830640094285741_);}
	.st21{fill:url(#SVGID_00000010293948951769694070000013159876275139112591_);}
	.st22{fill:url(#SVGID_00000065057090678995221900000013775835776710943678_);}
	.st23{fill:url(#SVGID_00000026867472782064450000000014428302259696856506_);}
	.st24{fill:url(#SVGID_00000016040621483098617270000011981167403113114008_);}
	.st25{fill:url(#SVGID_00000174584562368321270180000013314396865663921050_);}
	.st26{fill:url(#SVGID_00000137127306457637314250000014046814139327655817_);}
	.st27{fill:url(#SVGID_00000160879651206208497290000009097254765269293443_);}
	.st28{fill:url(#SVGID_00000154414224225882791180000007634773095052823711_);}
	.st29{fill:url(#SVGID_00000117673582010204821640000007084169319404327858_);}
	.st30{fill:url(#SVGID_00000096020944368636537060000002194416508715320482_);}
	.st31{fill:url(#SVGID_00000017502617274253946100000006345170095076449426_);}
	.st32{fill:url(#SVGID_00000086686304725717745460000010732036283033127103_);}
	.st33{opacity:0.3;fill:#FFFFFF;}
	.st34{fill:#211436;}
	.st35{fill:#7964B1;}
	.st36{fill:#9E86DF;}
	.st37{fill:#FFFFFF;}
	.st38{fill:#3D352E;}
	.st39{fill:#F9AE3B;}
	.st40{fill:#EB1C42;}
	.st41{fill:#CEBDFD;}
	.st42{opacity:0.3;fill:#685698;}
	.st43{fill:#FFAA97;}
	.st44{fill:#2B3D6E;}
	.st45{opacity:0.25;}
	.st46{fill:url(#SVGID_00000145738191876177254370000000652569754039570590_);}
	.st47{opacity:0.5;fill:#C59785;}
	.st48{fill:#5F3813;}
	.st49{opacity:0.3;fill:#841025;}
	.st50{fill:#3D3D59;}
	.st51{enable-background:new    ;}
	.st52{fill:#DC9221;}
	.st53{fill:#EB4967;}
	.st54{fill:#B81634;}
	.st55{fill:#4D4D4D;}
	.st56{fill:#C5B097;}
	.st57{fill:#333333;}
	.st58{opacity:0.2;fill:#FFFFFF;}
	.st59{fill:#666666;}
	.st60{fill:#808080;}
	.st61{fill:#565656;}
	.st62{fill:#1A1A1A;}
	.st63{opacity:0.5;fill:url(#SVGID_00000013874222271961657750000017538571743974782347_);}
	.st64{fill:#B2E63F;}
	.st65{font-family:'Bungee-Regular';}
	.st66{font-size:47.8714px;}
	.st67{fill:#B00BE6;}
	.st68{font-size:28.6418px;}
	.st69{fill:#00ADE3;}
	.st70{fill:url(#SVGID_00000129918125521191343080000001270560659646707122_);}
	.st71{fill:url(#SVGID_00000080914765030592779500000000375526681953063558_);}
</style>
<linearGradient id="SVGID_1_" gradientUnits="userSpaceOnUse" x1="1427.3115" y1="93.3402" x2="427.3116" y2="93.3402" gradientTransform="matrix(-1 0 0 -1 1427.3115 313.3402)">
	<stop  offset="0" style="stop-color:#008BD6"/>
	<stop  offset="0.0148" style="stop-color:#0184CF"/>
	<stop  offset="0.0963" style="stop-color:#0565AB"/>
	<stop  offset="0.1857" style="stop-color:#09498D"/>
	<stop  offset="0.2834" style="stop-color:#0D3374"/>
	<stop  offset="0.3927" style="stop-color:#0F2261"/>
	<stop  offset="0.5201" style="stop-color:#111654"/>
	<stop  offset="0.6821" style="stop-color:#120F4C"/>
	<stop  offset="0.996" style="stop-color:#120D4A"/>
</linearGradient>
<polygon class="st0" points="0,0 1000,0 1000,440 0,440 "/>
<g>
	<g>
		
			<linearGradient id="SVGID_00000094609294903198366950000012622005157039371439_" gradientUnits="userSpaceOnUse" x1="655.6871" y1="251.534" x2="655.6871" y2="284.9232">
			<stop  offset="0" style="stop-color:#C0A4D8"/>
			<stop  offset="0.0903" style="stop-color:#8257B5"/>
			<stop  offset="0.144" style="stop-color:#7D54AF"/>
			<stop  offset="0.2147" style="stop-color:#6E4B9F"/>
			<stop  offset="0.2947" style="stop-color:#563D84"/>
			<stop  offset="0.3809" style="stop-color:#34295E"/>
			<stop  offset="0.4378" style="stop-color:#1A1A41"/>
		</linearGradient>
		
			<rect x="649.58" y="250.57" style="fill:url(#SVGID_00000094609294903198366950000012622005157039371439_);" width="12.21" height="73.31"/>
		
			<linearGradient id="SVGID_00000026135385473502382370000016204601312048987268_" gradientUnits="userSpaceOnUse" x1="856.9781" y1="251.1052" x2="856.9781" y2="291.5514">
			<stop  offset="0" style="stop-color:#C0A4D8"/>
			<stop  offset="0.0903" style="stop-color:#8257B5"/>
			<stop  offset="0.144" style="stop-color:#7D54AF"/>
			<stop  offset="0.2147" style="stop-color:#6E4B9F"/>
			<stop  offset="0.2947" style="stop-color:#563D84"/>
			<stop  offset="0.3809" style="stop-color:#34295E"/>
			<stop  offset="0.4378" style="stop-color:#1A1A41"/>
		</linearGradient>
		
			<rect x="850.87" y="250.57" style="fill:url(#SVGID_00000026135385473502382370000016204601312048987268_);" width="12.21" height="73.31"/>
		
			<linearGradient id="SVGID_00000117677262989795379710000015806585134444467869_" gradientUnits="userSpaceOnUse" x1="736.2035" y1="243.7616" x2="736.2035" y2="267.5007">
			<stop  offset="0" style="stop-color:#8257B5"/>
			<stop  offset="0.0745" style="stop-color:#6E4B9F"/>
			<stop  offset="0.2069" style="stop-color:#503A7D"/>
			<stop  offset="0.3425" style="stop-color:#382C63"/>
			<stop  offset="0.481" style="stop-color:#272250"/>
			<stop  offset="0.624" style="stop-color:#1D1C45"/>
			<stop  offset="0.7787" style="stop-color:#1A1A41"/>
		</linearGradient>
		
			<rect x="730.1" y="243.15" style="fill:url(#SVGID_00000117677262989795379710000015806585134444467869_);" width="12.21" height="80.73"/>
		
			<linearGradient id="SVGID_00000130643363500583505410000010566779031327521445_" gradientUnits="userSpaceOnUse" x1="716.0744" y1="233.8122" x2="716.0744" y2="262.8336">
			<stop  offset="0" style="stop-color:#C0A4D8"/>
			<stop  offset="0.0903" style="stop-color:#8257B5"/>
			<stop  offset="0.144" style="stop-color:#7D54AF"/>
			<stop  offset="0.2147" style="stop-color:#6E4B9F"/>
			<stop  offset="0.2947" style="stop-color:#563D84"/>
			<stop  offset="0.3809" style="stop-color:#34295E"/>
			<stop  offset="0.4378" style="stop-color:#1A1A41"/>
		</linearGradient>
		
			<rect x="709.97" y="233.62" style="fill:url(#SVGID_00000130643363500583505410000010566779031327521445_);" width="12.21" height="90.26"/>
		
			<linearGradient id="SVGID_00000111149855678168366210000001482716779111141046_" gradientUnits="userSpaceOnUse" x1="675.8162" y1="278.8866" x2="675.8162" y2="312.5272">
			<stop  offset="0" style="stop-color:#8257B5"/>
			<stop  offset="0.0745" style="stop-color:#6E4B9F"/>
			<stop  offset="0.2069" style="stop-color:#503A7D"/>
			<stop  offset="0.3425" style="stop-color:#382C63"/>
			<stop  offset="0.481" style="stop-color:#272250"/>
			<stop  offset="0.624" style="stop-color:#1D1C45"/>
			<stop  offset="0.7787" style="stop-color:#1A1A41"/>
		</linearGradient>
		
			<rect x="669.71" y="278.11" style="fill:url(#SVGID_00000111149855678168366210000001482716779111141046_);" width="12.21" height="45.77"/>
		
			<linearGradient id="SVGID_00000083089289931717314180000010508070343397615771_" gradientUnits="userSpaceOnUse" x1="776.4617" y1="278.3477" x2="776.4617" y2="317.901">
			<stop  offset="0" style="stop-color:#8257B5"/>
			<stop  offset="0.0745" style="stop-color:#6E4B9F"/>
			<stop  offset="0.2069" style="stop-color:#503A7D"/>
			<stop  offset="0.3425" style="stop-color:#382C63"/>
			<stop  offset="0.481" style="stop-color:#272250"/>
			<stop  offset="0.624" style="stop-color:#1D1C45"/>
			<stop  offset="0.7787" style="stop-color:#1A1A41"/>
		</linearGradient>
		
			<rect x="770.36" y="278.11" style="fill:url(#SVGID_00000083089289931717314180000010508070343397615771_);" width="12.21" height="45.77"/>
		
			<linearGradient id="SVGID_00000018234753666682878580000002438727054320588205_" gradientUnits="userSpaceOnUse" x1="695.9453" y1="264.4896" x2="695.9453" y2="294.49">
			<stop  offset="0" style="stop-color:#C0A4D8"/>
			<stop  offset="0.0903" style="stop-color:#8257B5"/>
			<stop  offset="0.144" style="stop-color:#7D54AF"/>
			<stop  offset="0.2147" style="stop-color:#6E4B9F"/>
			<stop  offset="0.2947" style="stop-color:#563D84"/>
			<stop  offset="0.3809" style="stop-color:#34295E"/>
			<stop  offset="0.4378" style="stop-color:#1A1A41"/>
		</linearGradient>
		
			<rect x="689.84" y="264.13" style="fill:url(#SVGID_00000018234753666682878580000002438727054320588205_);" width="12.21" height="59.75"/>
		
			<linearGradient id="SVGID_00000172418303040550617630000003384109989496375219_" gradientUnits="userSpaceOnUse" x1="877.1072" y1="241.8665" x2="877.1072" y2="286.7575">
			<stop  offset="0" style="stop-color:#C0A4D8"/>
			<stop  offset="0.0903" style="stop-color:#8257B5"/>
			<stop  offset="0.144" style="stop-color:#7D54AF"/>
			<stop  offset="0.2147" style="stop-color:#6E4B9F"/>
			<stop  offset="0.2947" style="stop-color:#563D84"/>
			<stop  offset="0.3809" style="stop-color:#34295E"/>
			<stop  offset="0.4378" style="stop-color:#1A1A41"/>
		</linearGradient>
		
			<rect x="871" y="241.46" style="fill:url(#SVGID_00000172418303040550617630000003384109989496375219_);" width="12.21" height="82.42"/>
		
			<linearGradient id="SVGID_00000178901669494280878310000010196393546532823702_" gradientUnits="userSpaceOnUse" x1="957.6237" y1="243.7616" x2="957.6237" y2="277.1057">
			<stop  offset="0" style="stop-color:#C0A4D8"/>
			<stop  offset="0.0903" style="stop-color:#8257B5"/>
			<stop  offset="0.144" style="stop-color:#7D54AF"/>
			<stop  offset="0.2147" style="stop-color:#6E4B9F"/>
			<stop  offset="0.2947" style="stop-color:#563D84"/>
			<stop  offset="0.3809" style="stop-color:#34295E"/>
			<stop  offset="0.4378" style="stop-color:#1A1A41"/>
		</linearGradient>
		
			<rect x="951.52" y="243.15" style="fill:url(#SVGID_00000178901669494280878310000010196393546532823702_);" width="12.21" height="80.73"/>
		
			<linearGradient id="SVGID_00000165211184439168709130000016842962757617465493_" gradientUnits="userSpaceOnUse" x1="937.4945" y1="234.4044" x2="937.4945" y2="285.108">
			<stop  offset="0" style="stop-color:#C0A4D8"/>
			<stop  offset="0.0903" style="stop-color:#8257B5"/>
			<stop  offset="0.144" style="stop-color:#7D54AF"/>
			<stop  offset="0.2147" style="stop-color:#6E4B9F"/>
			<stop  offset="0.2947" style="stop-color:#563D84"/>
			<stop  offset="0.3809" style="stop-color:#34295E"/>
			<stop  offset="0.4378" style="stop-color:#1A1A41"/>
		</linearGradient>
		
			<rect x="931.39" y="233.62" style="fill:url(#SVGID_00000165211184439168709130000016842962757617465493_);" width="12.21" height="90.26"/>
		
			<linearGradient id="SVGID_00000096026064617831783260000006972093606297813143_" gradientUnits="userSpaceOnUse" x1="897.2363" y1="279.0584" x2="897.2363" y2="317.7908">
			<stop  offset="0" style="stop-color:#8257B5"/>
			<stop  offset="0.0745" style="stop-color:#6E4B9F"/>
			<stop  offset="0.2069" style="stop-color:#503A7D"/>
			<stop  offset="0.3425" style="stop-color:#382C63"/>
			<stop  offset="0.481" style="stop-color:#272250"/>
			<stop  offset="0.624" style="stop-color:#1D1C45"/>
			<stop  offset="0.7787" style="stop-color:#1A1A41"/>
		</linearGradient>
		
			<rect x="891.13" y="278.11" style="fill:url(#SVGID_00000096026064617831783260000006972093606297813143_);" width="12.21" height="45.77"/>
		
			<linearGradient id="SVGID_00000136386171560813936760000016461884636205964435_" gradientUnits="userSpaceOnUse" x1="917.3654" y1="264.608" x2="917.3654" y2="303.7667">
			<stop  offset="0" style="stop-color:#8257B5"/>
			<stop  offset="0.0745" style="stop-color:#6E4B9F"/>
			<stop  offset="0.2069" style="stop-color:#503A7D"/>
			<stop  offset="0.3425" style="stop-color:#382C63"/>
			<stop  offset="0.481" style="stop-color:#272250"/>
			<stop  offset="0.624" style="stop-color:#1D1C45"/>
			<stop  offset="0.7787" style="stop-color:#1A1A41"/>
		</linearGradient>
		
			<rect x="911.26" y="264.13" style="fill:url(#SVGID_00000136386171560813936760000016461884636205964435_);" width="12.21" height="59.75"/>
		
			<linearGradient id="SVGID_00000073719537555542161270000015221869651903728548_" gradientUnits="userSpaceOnUse" x1="796.5908" y1="250.8684" x2="796.5908" y2="277.704">
			<stop  offset="0" style="stop-color:#8257B5"/>
			<stop  offset="0.0745" style="stop-color:#6E4B9F"/>
			<stop  offset="0.2069" style="stop-color:#503A7D"/>
			<stop  offset="0.3425" style="stop-color:#382C63"/>
			<stop  offset="0.481" style="stop-color:#272250"/>
			<stop  offset="0.624" style="stop-color:#1D1C45"/>
			<stop  offset="0.7787" style="stop-color:#1A1A41"/>
		</linearGradient>
		
			<rect x="790.48" y="250.57" style="fill:url(#SVGID_00000073719537555542161270000015221869651903728548_);" width="12.21" height="73.31"/>
		
			<linearGradient id="SVGID_00000080193494401412681800000015202225638521753753_" gradientUnits="userSpaceOnUse" x1="816.7199" y1="294.101" x2="816.7199" y2="341.6758">
			<stop  offset="0" style="stop-color:#8257B5"/>
			<stop  offset="0.0745" style="stop-color:#6E4B9F"/>
			<stop  offset="0.2069" style="stop-color:#503A7D"/>
			<stop  offset="0.3425" style="stop-color:#382C63"/>
			<stop  offset="0.481" style="stop-color:#272250"/>
			<stop  offset="0.624" style="stop-color:#1D1C45"/>
			<stop  offset="0.7787" style="stop-color:#1A1A41"/>
		</linearGradient>
		
			<rect x="810.61" y="294.01" style="fill:url(#SVGID_00000080193494401412681800000015202225638521753753_);" width="12.21" height="29.88"/>
		
			<linearGradient id="SVGID_00000071522807895661238010000018102938277744074681_" gradientUnits="userSpaceOnUse" x1="836.849" y1="265.0818" x2="836.849" y2="303.7066">
			<stop  offset="0" style="stop-color:#C0A4D8"/>
			<stop  offset="0.0903" style="stop-color:#8257B5"/>
			<stop  offset="0.144" style="stop-color:#7D54AF"/>
			<stop  offset="0.2147" style="stop-color:#6E4B9F"/>
			<stop  offset="0.2947" style="stop-color:#563D84"/>
			<stop  offset="0.3809" style="stop-color:#34295E"/>
			<stop  offset="0.4378" style="stop-color:#1A1A41"/>
		</linearGradient>
		
			<rect x="830.74" y="264.13" style="fill:url(#SVGID_00000071522807895661238010000018102938277744074681_);" width="12.21" height="59.75"/>
		
			<linearGradient id="SVGID_00000102509874341366381210000017306831295277319050_" gradientUnits="userSpaceOnUse" x1="756.3326" y1="255.2309" x2="756.3326" y2="293.7564">
			<stop  offset="0" style="stop-color:#C0A4D8"/>
			<stop  offset="0.0903" style="stop-color:#8257B5"/>
			<stop  offset="0.144" style="stop-color:#7D54AF"/>
			<stop  offset="0.2147" style="stop-color:#6E4B9F"/>
			<stop  offset="0.2947" style="stop-color:#563D84"/>
			<stop  offset="0.3809" style="stop-color:#34295E"/>
			<stop  offset="0.4378" style="stop-color:#1A1A41"/>
		</linearGradient>
		
			<rect x="750.23" y="255.23" style="fill:url(#SVGID_00000102509874341366381210000017306831295277319050_);" width="12.21" height="68.65"/>
	</g>
	<g>
		
			<linearGradient id="SVGID_00000093169933742638237510000010920249224693848216_" gradientUnits="userSpaceOnUse" x1="655.6871" y1="-11.4358" x2="655.6871" y2="363.4724">
			<stop  offset="0" style="stop-color:#B45633"/>
			<stop  offset="0.2131" style="stop-color:#FF5B7E"/>
			<stop  offset="0.2527" style="stop-color:#FF7388"/>
			<stop  offset="0.3646" style="stop-color:#FFB1A2"/>
			<stop  offset="0.4466" style="stop-color:#FFD8B2"/>
			<stop  offset="0.4893" style="stop-color:#FFE7B8"/>
			<stop  offset="0.5015" style="stop-color:#FFDEB5"/>
			<stop  offset="0.5753" style="stop-color:#FFABA6"/>
			<stop  offset="0.6397" style="stop-color:#FF869B"/>
			<stop  offset="0.6916" style="stop-color:#FF6F94"/>
			<stop  offset="0.7245" style="stop-color:#FF6792"/>
			<stop  offset="0.8535" style="stop-color:#AA479A"/>
			<stop  offset="0.9501" style="stop-color:#7131A0"/>
			<stop  offset="0.9964" style="stop-color:#5B29A2"/>
		</linearGradient>
		
			<rect x="649.58" y="273.1" style="fill:url(#SVGID_00000093169933742638237510000010920249224693848216_);" width="12.21" height="89.58"/>
		
			<linearGradient id="SVGID_00000175313660927205421760000011364835956204998317_" gradientUnits="userSpaceOnUse" x1="856.9781" y1="-11.4358" x2="856.9781" y2="363.4724">
			<stop  offset="0" style="stop-color:#B45633"/>
			<stop  offset="0.2131" style="stop-color:#FF5B7E"/>
			<stop  offset="0.2527" style="stop-color:#FF7388"/>
			<stop  offset="0.3646" style="stop-color:#FFB1A2"/>
			<stop  offset="0.4466" style="stop-color:#FFD8B2"/>
			<stop  offset="0.4893" style="stop-color:#FFE7B8"/>
			<stop  offset="0.5015" style="stop-color:#FFDEB5"/>
			<stop  offset="0.5753" style="stop-color:#FFABA6"/>
			<stop  offset="0.6397" style="stop-color:#FF869B"/>
			<stop  offset="0.6916" style="stop-color:#FF6F94"/>
			<stop  offset="0.7245" style="stop-color:#FF6792"/>
			<stop  offset="0.8535" style="stop-color:#AA479A"/>
			<stop  offset="0.9501" style="stop-color:#7131A0"/>
			<stop  offset="0.9964" style="stop-color:#5B29A2"/>
		</linearGradient>
		
			<rect x="850.87" y="273.1" style="fill:url(#SVGID_00000175313660927205421760000011364835956204998317_);" width="12.21" height="89.58"/>
		
			<linearGradient id="SVGID_00000054965469435918406730000014037109442590611624_" gradientUnits="userSpaceOnUse" x1="736.2035" y1="-11.4353" x2="736.2035" y2="363.4722">
			<stop  offset="0" style="stop-color:#B45633"/>
			<stop  offset="0.2131" style="stop-color:#FF5B7E"/>
			<stop  offset="0.2527" style="stop-color:#FF7388"/>
			<stop  offset="0.3646" style="stop-color:#FFB1A2"/>
			<stop  offset="0.4466" style="stop-color:#FFD8B2"/>
			<stop  offset="0.4893" style="stop-color:#FFE7B8"/>
			<stop  offset="0.5015" style="stop-color:#FFDEB5"/>
			<stop  offset="0.5753" style="stop-color:#FFABA6"/>
			<stop  offset="0.6397" style="stop-color:#FF869B"/>
			<stop  offset="0.6916" style="stop-color:#FF6F94"/>
			<stop  offset="0.7245" style="stop-color:#FF6792"/>
			<stop  offset="0.8535" style="stop-color:#AA479A"/>
			<stop  offset="0.9501" style="stop-color:#7131A0"/>
			<stop  offset="0.9964" style="stop-color:#5B29A2"/>
		</linearGradient>
		
			<rect x="730.1" y="264.03" style="fill:url(#SVGID_00000054965469435918406730000014037109442590611624_);" width="12.21" height="98.64"/>
		
			<linearGradient id="SVGID_00000022530915832002757750000010828691429255573120_" gradientUnits="userSpaceOnUse" x1="716.0744" y1="-11.436" x2="716.0744" y2="363.4716">
			<stop  offset="0" style="stop-color:#B45633"/>
			<stop  offset="0.2131" style="stop-color:#FF5B7E"/>
			<stop  offset="0.2527" style="stop-color:#FF7388"/>
			<stop  offset="0.3646" style="stop-color:#FFB1A2"/>
			<stop  offset="0.4466" style="stop-color:#FFD8B2"/>
			<stop  offset="0.4893" style="stop-color:#FFE7B8"/>
			<stop  offset="0.5015" style="stop-color:#FFDEB5"/>
			<stop  offset="0.5753" style="stop-color:#FFABA6"/>
			<stop  offset="0.6397" style="stop-color:#FF869B"/>
			<stop  offset="0.6916" style="stop-color:#FF6F94"/>
			<stop  offset="0.7245" style="stop-color:#FF6792"/>
			<stop  offset="0.8535" style="stop-color:#AA479A"/>
			<stop  offset="0.9501" style="stop-color:#7131A0"/>
			<stop  offset="0.9964" style="stop-color:#5B29A2"/>
		</linearGradient>
		
			<rect x="709.97" y="252.38" style="fill:url(#SVGID_00000022530915832002757750000010828691429255573120_);" width="12.21" height="110.29"/>
		
			<linearGradient id="SVGID_00000050653013964944736680000017217568592267734404_" gradientUnits="userSpaceOnUse" x1="675.8162" y1="-11.4357" x2="675.8162" y2="363.4722">
			<stop  offset="0" style="stop-color:#B45633"/>
			<stop  offset="0.2131" style="stop-color:#FF5B7E"/>
			<stop  offset="0.2527" style="stop-color:#FF7388"/>
			<stop  offset="0.3646" style="stop-color:#FFB1A2"/>
			<stop  offset="0.4466" style="stop-color:#FFD8B2"/>
			<stop  offset="0.4893" style="stop-color:#FFE7B8"/>
			<stop  offset="0.5015" style="stop-color:#FFDEB5"/>
			<stop  offset="0.5753" style="stop-color:#FFABA6"/>
			<stop  offset="0.6397" style="stop-color:#FF869B"/>
			<stop  offset="0.6916" style="stop-color:#FF6F94"/>
			<stop  offset="0.7245" style="stop-color:#FF6792"/>
			<stop  offset="0.8535" style="stop-color:#AA479A"/>
			<stop  offset="0.9501" style="stop-color:#7131A0"/>
			<stop  offset="0.9964" style="stop-color:#5B29A2"/>
		</linearGradient>
		
			<rect x="669.71" y="306.75" style="fill:url(#SVGID_00000050653013964944736680000017217568592267734404_);" width="12.21" height="55.92"/>
		
			<linearGradient id="SVGID_00000014629565974250314960000003958980628071152813_" gradientUnits="userSpaceOnUse" x1="776.4617" y1="-11.4357" x2="776.4617" y2="363.4722">
			<stop  offset="0" style="stop-color:#B45633"/>
			<stop  offset="0.2131" style="stop-color:#FF5B7E"/>
			<stop  offset="0.2527" style="stop-color:#FF7388"/>
			<stop  offset="0.3646" style="stop-color:#FFB1A2"/>
			<stop  offset="0.4466" style="stop-color:#FFD8B2"/>
			<stop  offset="0.4893" style="stop-color:#FFE7B8"/>
			<stop  offset="0.5015" style="stop-color:#FFDEB5"/>
			<stop  offset="0.5753" style="stop-color:#FFABA6"/>
			<stop  offset="0.6397" style="stop-color:#FF869B"/>
			<stop  offset="0.6916" style="stop-color:#FF6F94"/>
			<stop  offset="0.7245" style="stop-color:#FF6792"/>
			<stop  offset="0.8535" style="stop-color:#AA479A"/>
			<stop  offset="0.9501" style="stop-color:#7131A0"/>
			<stop  offset="0.9964" style="stop-color:#5B29A2"/>
		</linearGradient>
		
			<rect x="770.36" y="306.75" style="fill:url(#SVGID_00000014629565974250314960000003958980628071152813_);" width="12.21" height="55.92"/>
		
			<linearGradient id="SVGID_00000178922055160046651700000003234906376318999695_" gradientUnits="userSpaceOnUse" x1="695.9453" y1="-11.4354" x2="695.9453" y2="363.4729">
			<stop  offset="0" style="stop-color:#B45633"/>
			<stop  offset="0.2131" style="stop-color:#FF5B7E"/>
			<stop  offset="0.2527" style="stop-color:#FF7388"/>
			<stop  offset="0.3646" style="stop-color:#FFB1A2"/>
			<stop  offset="0.4466" style="stop-color:#FFD8B2"/>
			<stop  offset="0.4893" style="stop-color:#FFE7B8"/>
			<stop  offset="0.5015" style="stop-color:#FFDEB5"/>
			<stop  offset="0.5753" style="stop-color:#FFABA6"/>
			<stop  offset="0.6397" style="stop-color:#FF869B"/>
			<stop  offset="0.6916" style="stop-color:#FF6F94"/>
			<stop  offset="0.7245" style="stop-color:#FF6792"/>
			<stop  offset="0.8535" style="stop-color:#AA479A"/>
			<stop  offset="0.9501" style="stop-color:#7131A0"/>
			<stop  offset="0.9964" style="stop-color:#5B29A2"/>
		</linearGradient>
		
			<rect x="689.84" y="289.67" style="fill:url(#SVGID_00000178922055160046651700000003234906376318999695_);" width="12.21" height="73.01"/>
		
			<linearGradient id="SVGID_00000014611057346584096940000016132298846108186026_" gradientUnits="userSpaceOnUse" x1="877.1072" y1="-11.4352" x2="877.1072" y2="363.4729">
			<stop  offset="0" style="stop-color:#B45633"/>
			<stop  offset="0.2131" style="stop-color:#FF5B7E"/>
			<stop  offset="0.2527" style="stop-color:#FF7388"/>
			<stop  offset="0.3646" style="stop-color:#FFB1A2"/>
			<stop  offset="0.4466" style="stop-color:#FFD8B2"/>
			<stop  offset="0.4893" style="stop-color:#FFE7B8"/>
			<stop  offset="0.5015" style="stop-color:#FFDEB5"/>
			<stop  offset="0.5753" style="stop-color:#FFABA6"/>
			<stop  offset="0.6397" style="stop-color:#FF869B"/>
			<stop  offset="0.6916" style="stop-color:#FF6F94"/>
			<stop  offset="0.7245" style="stop-color:#FF6792"/>
			<stop  offset="0.8535" style="stop-color:#AA479A"/>
			<stop  offset="0.9501" style="stop-color:#7131A0"/>
			<stop  offset="0.9964" style="stop-color:#5B29A2"/>
		</linearGradient>
		
			<rect x="871" y="261.96" style="fill:url(#SVGID_00000014611057346584096940000016132298846108186026_);" width="12.21" height="100.71"/>
		
			<linearGradient id="SVGID_00000155866078389587672060000014433148468462320045_" gradientUnits="userSpaceOnUse" x1="957.6237" y1="-11.4353" x2="957.6237" y2="363.4722">
			<stop  offset="0" style="stop-color:#B45633"/>
			<stop  offset="0.2131" style="stop-color:#FF5B7E"/>
			<stop  offset="0.2527" style="stop-color:#FF7388"/>
			<stop  offset="0.3646" style="stop-color:#FFB1A2"/>
			<stop  offset="0.4466" style="stop-color:#FFD8B2"/>
			<stop  offset="0.4893" style="stop-color:#FFE7B8"/>
			<stop  offset="0.5015" style="stop-color:#FFDEB5"/>
			<stop  offset="0.5753" style="stop-color:#FFABA6"/>
			<stop  offset="0.6397" style="stop-color:#FF869B"/>
			<stop  offset="0.6916" style="stop-color:#FF6F94"/>
			<stop  offset="0.7245" style="stop-color:#FF6792"/>
			<stop  offset="0.8535" style="stop-color:#AA479A"/>
			<stop  offset="0.9501" style="stop-color:#7131A0"/>
			<stop  offset="0.9964" style="stop-color:#5B29A2"/>
		</linearGradient>
		
			<rect x="951.52" y="264.03" style="fill:url(#SVGID_00000155866078389587672060000014433148468462320045_);" width="12.21" height="98.64"/>
		
			<linearGradient id="SVGID_00000042722373965250290760000014937564794344324227_" gradientUnits="userSpaceOnUse" x1="937.4945" y1="-11.436" x2="937.4945" y2="363.4716">
			<stop  offset="0" style="stop-color:#B45633"/>
			<stop  offset="0.2131" style="stop-color:#FF5B7E"/>
			<stop  offset="0.2527" style="stop-color:#FF7388"/>
			<stop  offset="0.3646" style="stop-color:#FFB1A2"/>
			<stop  offset="0.4466" style="stop-color:#FFD8B2"/>
			<stop  offset="0.4893" style="stop-color:#FFE7B8"/>
			<stop  offset="0.5015" style="stop-color:#FFDEB5"/>
			<stop  offset="0.5753" style="stop-color:#FFABA6"/>
			<stop  offset="0.6397" style="stop-color:#FF869B"/>
			<stop  offset="0.6916" style="stop-color:#FF6F94"/>
			<stop  offset="0.7245" style="stop-color:#FF6792"/>
			<stop  offset="0.8535" style="stop-color:#AA479A"/>
			<stop  offset="0.9501" style="stop-color:#7131A0"/>
			<stop  offset="0.9964" style="stop-color:#5B29A2"/>
		</linearGradient>
		
			<rect x="931.39" y="252.38" style="fill:url(#SVGID_00000042722373965250290760000014937564794344324227_);" width="12.21" height="110.29"/>
		
			<linearGradient id="SVGID_00000057144041063111864320000014390298360610172828_" gradientUnits="userSpaceOnUse" x1="897.2363" y1="-11.4357" x2="897.2363" y2="363.4722">
			<stop  offset="0" style="stop-color:#B45633"/>
			<stop  offset="0.2131" style="stop-color:#FF5B7E"/>
			<stop  offset="0.2527" style="stop-color:#FF7388"/>
			<stop  offset="0.3646" style="stop-color:#FFB1A2"/>
			<stop  offset="0.4466" style="stop-color:#FFD8B2"/>
			<stop  offset="0.4893" style="stop-color:#FFE7B8"/>
			<stop  offset="0.5015" style="stop-color:#FFDEB5"/>
			<stop  offset="0.5753" style="stop-color:#FFABA6"/>
			<stop  offset="0.6397" style="stop-color:#FF869B"/>
			<stop  offset="0.6916" style="stop-color:#FF6F94"/>
			<stop  offset="0.7245" style="stop-color:#FF6792"/>
			<stop  offset="0.8535" style="stop-color:#AA479A"/>
			<stop  offset="0.9501" style="stop-color:#7131A0"/>
			<stop  offset="0.9964" style="stop-color:#5B29A2"/>
		</linearGradient>
		
			<rect x="891.13" y="306.75" style="fill:url(#SVGID_00000057144041063111864320000014390298360610172828_);" width="12.21" height="55.92"/>
		
			<linearGradient id="SVGID_00000114070011854009060010000003645326355180606110_" gradientUnits="userSpaceOnUse" x1="917.3654" y1="-11.4354" x2="917.3654" y2="363.4729">
			<stop  offset="0" style="stop-color:#B45633"/>
			<stop  offset="0.2131" style="stop-color:#FF5B7E"/>
			<stop  offset="0.2527" style="stop-color:#FF7388"/>
			<stop  offset="0.3646" style="stop-color:#FFB1A2"/>
			<stop  offset="0.4466" style="stop-color:#FFD8B2"/>
			<stop  offset="0.4893" style="stop-color:#FFE7B8"/>
			<stop  offset="0.5015" style="stop-color:#FFDEB5"/>
			<stop  offset="0.5753" style="stop-color:#FFABA6"/>
			<stop  offset="0.6397" style="stop-color:#FF869B"/>
			<stop  offset="0.6916" style="stop-color:#FF6F94"/>
			<stop  offset="0.7245" style="stop-color:#FF6792"/>
			<stop  offset="0.8535" style="stop-color:#AA479A"/>
			<stop  offset="0.9501" style="stop-color:#7131A0"/>
			<stop  offset="0.9964" style="stop-color:#5B29A2"/>
		</linearGradient>
		
			<rect x="911.26" y="289.67" style="fill:url(#SVGID_00000114070011854009060010000003645326355180606110_);" width="12.21" height="73.01"/>
		
			<linearGradient id="SVGID_00000044159482915100799390000006068598658018795196_" gradientUnits="userSpaceOnUse" x1="796.5908" y1="-11.4358" x2="796.5908" y2="363.4724">
			<stop  offset="0" style="stop-color:#B45633"/>
			<stop  offset="0.2131" style="stop-color:#FF5B7E"/>
			<stop  offset="0.2527" style="stop-color:#FF7388"/>
			<stop  offset="0.3646" style="stop-color:#FFB1A2"/>
			<stop  offset="0.4466" style="stop-color:#FFD8B2"/>
			<stop  offset="0.4893" style="stop-color:#FFE7B8"/>
			<stop  offset="0.5015" style="stop-color:#FFDEB5"/>
			<stop  offset="0.5753" style="stop-color:#FFABA6"/>
			<stop  offset="0.6397" style="stop-color:#FF869B"/>
			<stop  offset="0.6916" style="stop-color:#FF6F94"/>
			<stop  offset="0.7245" style="stop-color:#FF6792"/>
			<stop  offset="0.8535" style="stop-color:#AA479A"/>
			<stop  offset="0.9501" style="stop-color:#7131A0"/>
			<stop  offset="0.9964" style="stop-color:#5B29A2"/>
		</linearGradient>
		
			<rect x="790.48" y="273.1" style="fill:url(#SVGID_00000044159482915100799390000006068598658018795196_);" width="12.21" height="89.58"/>
		
			<linearGradient id="SVGID_00000086661775607275951410000004959360867998866111_" gradientUnits="userSpaceOnUse" x1="816.7199" y1="-11.4356" x2="816.7199" y2="363.4711">
			<stop  offset="0" style="stop-color:#B45633"/>
			<stop  offset="0.2131" style="stop-color:#FF5B7E"/>
			<stop  offset="0.2527" style="stop-color:#FF7388"/>
			<stop  offset="0.3646" style="stop-color:#FFB1A2"/>
			<stop  offset="0.4466" style="stop-color:#FFD8B2"/>
			<stop  offset="0.4893" style="stop-color:#FFE7B8"/>
			<stop  offset="0.5015" style="stop-color:#FFDEB5"/>
			<stop  offset="0.5753" style="stop-color:#FFABA6"/>
			<stop  offset="0.6397" style="stop-color:#FF869B"/>
			<stop  offset="0.6916" style="stop-color:#FF6F94"/>
			<stop  offset="0.7245" style="stop-color:#FF6792"/>
			<stop  offset="0.8535" style="stop-color:#AA479A"/>
			<stop  offset="0.9501" style="stop-color:#7131A0"/>
			<stop  offset="0.9964" style="stop-color:#5B29A2"/>
		</linearGradient>
		
			<rect x="810.61" y="326.17" style="fill:url(#SVGID_00000086661775607275951410000004959360867998866111_);" width="12.21" height="36.5"/>
		
			<linearGradient id="SVGID_00000110439510734859935860000001217443432797365142_" gradientUnits="userSpaceOnUse" x1="836.849" y1="-11.4354" x2="836.849" y2="363.4729">
			<stop  offset="0" style="stop-color:#B45633"/>
			<stop  offset="0.2131" style="stop-color:#FF5B7E"/>
			<stop  offset="0.2527" style="stop-color:#FF7388"/>
			<stop  offset="0.3646" style="stop-color:#FFB1A2"/>
			<stop  offset="0.4466" style="stop-color:#FFD8B2"/>
			<stop  offset="0.4893" style="stop-color:#FFE7B8"/>
			<stop  offset="0.5015" style="stop-color:#FFDEB5"/>
			<stop  offset="0.5753" style="stop-color:#FFABA6"/>
			<stop  offset="0.6397" style="stop-color:#FF869B"/>
			<stop  offset="0.6916" style="stop-color:#FF6F94"/>
			<stop  offset="0.7245" style="stop-color:#FF6792"/>
			<stop  offset="0.8535" style="stop-color:#AA479A"/>
			<stop  offset="0.9501" style="stop-color:#7131A0"/>
			<stop  offset="0.9964" style="stop-color:#5B29A2"/>
		</linearGradient>
		
			<rect x="830.74" y="289.67" style="fill:url(#SVGID_00000110439510734859935860000001217443432797365142_);" width="12.21" height="73.01"/>
		
			<linearGradient id="SVGID_00000177468523401378173930000011819503896927634332_" gradientUnits="userSpaceOnUse" x1="756.3326" y1="-11.4357" x2="756.3326" y2="363.472">
			<stop  offset="0" style="stop-color:#B45633"/>
			<stop  offset="0.2131" style="stop-color:#FF5B7E"/>
			<stop  offset="0.2527" style="stop-color:#FF7388"/>
			<stop  offset="0.3646" style="stop-color:#FFB1A2"/>
			<stop  offset="0.4466" style="stop-color:#FFD8B2"/>
			<stop  offset="0.4893" style="stop-color:#FFE7B8"/>
			<stop  offset="0.5015" style="stop-color:#FFDEB5"/>
			<stop  offset="0.5753" style="stop-color:#FFABA6"/>
			<stop  offset="0.6397" style="stop-color:#FF869B"/>
			<stop  offset="0.6916" style="stop-color:#FF6F94"/>
			<stop  offset="0.7245" style="stop-color:#FF6792"/>
			<stop  offset="0.8535" style="stop-color:#AA479A"/>
			<stop  offset="0.9501" style="stop-color:#7131A0"/>
			<stop  offset="0.9964" style="stop-color:#5B29A2"/>
		</linearGradient>
		
			<rect x="750.23" y="278.79" style="fill:url(#SVGID_00000177468523401378173930000011819503896927634332_);" width="12.21" height="83.88"/>
	</g>
</g>
<ellipse class="st33" cx="333.27" cy="308.44" rx="262.02" ry="119.26"/>
<g>
	<g>
		<polygon class="st34" points="447.34,241.5 398.75,213.45 398.75,120.11 447.34,148.16 		"/>
		<polygon class="st35" points="532.61,192.27 447.34,241.5 447.34,148.16 532.61,98.93 		"/>
		<polygon class="st34" points="451.06,165.04 528.88,120.11 528.88,190.12 451.06,235.05 		"/>
		<polygon class="st36" points="484.03,70.88 532.61,98.93 447.34,148.16 398.75,120.11 		"/>
		<g>
			
				<ellipse transform="matrix(0.5 -0.866 0.866 0.5 91.198 513.1184)" class="st37" cx="489.97" cy="177.58" rx="34.95" ry="20.18"/>
			<ellipse transform="matrix(0.5 -0.866 0.866 0.5 91.197 513.1172)" class="st38" cx="489.97" cy="177.58" rx="24.77" ry="14.3"/>
			<path class="st39" d="M491.6,172.09c0-3.55-2.49-4.99-5.57-3.21c-3.07,1.77-5.57,6.09-5.57,9.64c0,3.55,2.49,4.99,5.57,3.21
				C489.11,179.96,491.6,175.64,491.6,172.09z"/>
		</g>
		<g>
			
				<ellipse transform="matrix(0.5 -0.866 0.866 0.5 139.7226 518.6432)" class="st36" cx="519.02" cy="138.32" rx="10.29" ry="5.94"/>
			<path class="st34" d="M524.18,135.34c0-3.29-2.31-4.62-5.16-2.98c-2.85,1.64-5.16,5.64-5.16,8.93c0,3.29,2.31,4.62,5.16,2.98
				C521.87,142.63,524.18,138.63,524.18,135.34z"/>
			<path class="st39" d="M519.5,136.7c0-1.05-0.73-1.47-1.64-0.95c-0.91,0.52-1.64,1.79-1.64,2.84c0,1.05,0.73,1.47,1.64,0.95
				C518.77,139.02,519.5,137.75,519.5,136.7z"/>
		</g>
		<g>
			<path class="st37" d="M473.29,145.85c-1.31,0.76-2.38,0.14-2.38-1.37c0-1.52,1.06-3.36,2.38-4.12c1.31-0.76,2.38-0.14,2.38,1.37
				C475.66,143.24,474.6,145.09,473.29,145.85z"/>
			<path class="st34" d="M472.27,145.94c0,0,4.67,1.43,4.67,1.43l1.87-3.23l-3.57-3.34c-0.39-0.36-1-0.39-1.69,0.01
				c-1.17,0.68-2.12,2.32-2.12,3.67C471.44,145.28,471.76,145.79,472.27,145.94z"/>
			<path class="st37" d="M477.75,147.22c-0.74,0.42-1.33,0.08-1.33-0.77c0-0.85,0.6-1.88,1.33-2.31c0.74-0.42,1.33-0.08,1.33,0.77
				S478.49,146.79,477.75,147.22z"/>
		</g>
		<g>
			<path class="st37" d="M464.12,151.14c-1.31,0.76-2.38,0.14-2.38-1.37c0-1.52,1.06-3.36,2.38-4.12c1.31-0.76,2.38-0.14,2.38,1.37
				C466.5,148.54,465.43,150.38,464.12,151.14z"/>
			<path class="st34" d="M463.1,151.24c0,0,4.67,1.43,4.67,1.43l1.87-3.23l-3.57-3.34c-0.39-0.36-1-0.39-1.69,0.01
				c-1.17,0.68-2.12,2.32-2.12,3.67C462.27,150.57,462.6,151.08,463.1,151.24z"/>
			<path class="st37" d="M468.59,152.51c-0.74,0.42-1.33,0.08-1.33-0.77c0-0.85,0.6-1.88,1.33-2.31c0.74-0.42,1.33-0.08,1.33,0.77
				C469.92,151.05,469.32,152.09,468.59,152.51z"/>
		</g>
		<g>
			<path class="st37" d="M454.95,156.43c-1.31,0.76-2.38,0.14-2.38-1.37c0-1.52,1.06-3.36,2.38-4.12c1.31-0.76,2.38-0.14,2.38,1.37
				C457.33,153.83,456.27,155.67,454.95,156.43z"/>
			<path class="st34" d="M453.94,156.53c0,0,4.67,1.43,4.67,1.43l1.87-3.23l-3.57-3.34c-0.39-0.36-1-0.39-1.69,0.01
				c-1.17,0.68-2.12,2.32-2.12,3.67C453.1,155.86,453.43,156.38,453.94,156.53z"/>
			<path class="st37" d="M459.42,157.8c-0.74,0.42-1.33,0.08-1.33-0.77s0.6-1.88,1.33-2.31c0.74-0.42,1.33-0.08,1.33,0.77
				C460.75,156.35,460.16,157.38,459.42,157.8z"/>
		</g>
		<g>
			<polygon class="st39" points="510.47,119.96 507.17,121.86 507.17,127.78 510.47,125.88 			"/>
			<polygon class="st37" points="520.2,114.34 516.91,116.24 516.91,122.16 520.2,120.26 			"/>
			<polygon class="st37" points="524.38,111.93 521.08,113.83 521.08,119.75 524.38,117.85 			"/>
			<polygon class="st40" points="528.55,109.52 525.25,111.42 525.25,117.34 528.55,115.44 			"/>
		</g>
	</g>
	<g>
		<g>
			<polygon class="st34" points="477.73,114.15 445.81,95.72 445.81,34.4 477.73,52.83 			"/>
			<polygon class="st35" points="509.65,95.72 477.73,114.15 477.73,52.83 509.65,34.4 			"/>
			<polygon class="st34" points="480.18,54.24 507.2,38.64 507.2,94.31 480.18,109.91 			"/>
			<polygon class="st41" points="477.73,15.97 509.65,34.4 477.73,52.83 445.81,34.4 			"/>
			<g>
				
					<ellipse transform="matrix(0.5 -0.866 0.866 0.5 175.8839 469.4606)" class="st37" cx="494.51" cy="82.41" rx="15.63" ry="9.02"/>
				
					<ellipse transform="matrix(0.5 -0.866 0.866 0.5 175.8849 469.4615)" class="st38" cx="494.51" cy="82.41" rx="11.08" ry="6.4"/>
				<path class="st39" d="M495.24,79.96c0-1.59-1.11-2.23-2.49-1.44c-1.37,0.79-2.49,2.72-2.49,4.31s1.11,2.23,2.49,1.44
					C494.12,83.47,495.24,81.54,495.24,79.96z"/>
			</g>
			<g>
				<path class="st37" d="M501.2,55.12c0-4.26-2.99-5.99-6.69-3.86c-3.69,2.13-6.69,7.32-6.69,11.58s2.99,5.99,6.69,3.86
					C498.2,64.57,501.2,59.38,501.2,55.12z"/>
				<path class="st38" d="M499.25,56.24c0-3.02-2.12-4.25-4.74-2.74c-2.62,1.51-4.74,5.19-4.74,8.21c0,3.02,2.12,4.25,4.74,2.74
					C497.13,62.94,499.25,59.26,499.25,56.24z"/>
				<path class="st39" d="M494.95,57.49c0-0.96-0.67-1.35-1.51-0.87c-0.83,0.48-1.51,1.65-1.51,2.61c0,0.96,0.67,1.35,1.51,0.87
					C494.27,59.62,494.95,58.45,494.95,57.49z"/>
			</g>
		</g>
		<g>
			<polygon class="st34" points="441.11,135.25 409.19,116.82 409.19,55.5 441.11,73.93 			"/>
			<polygon class="st35" points="473.03,116.82 441.11,135.25 441.11,73.93 473.03,55.5 			"/>
			<polygon class="st34" points="443.56,75.34 470.58,59.74 470.58,115.41 443.56,131.01 			"/>
			<polygon class="st41" points="441.11,37.07 473.03,55.5 441.11,73.93 409.19,55.5 			"/>
			<g>
				<path class="st37" d="M468.94,97.13c0-7.05-4.95-9.9-11.05-6.38c-6.1,3.52-11.05,12.09-11.05,19.14c0,7.05,4.95,9.9,11.05,6.38
					C463.99,112.75,468.94,104.18,468.94,97.13z"/>
				
					<ellipse transform="matrix(0.5 -0.866 0.866 0.5 139.3002 448.2939)" class="st38" cx="457.88" cy="103.51" rx="11.08" ry="6.4"/>
				<path class="st39" d="M458.61,101.06c0-1.59-1.11-2.23-2.49-1.44c-1.37,0.79-2.49,2.72-2.49,4.31c0,1.59,1.11,2.23,2.49,1.44
					C457.5,104.57,458.61,102.64,458.61,101.06z"/>
			</g>
			<g>
				<path class="st37" d="M464.57,76.22c0-4.26-2.99-5.99-6.69-3.86c-3.69,2.13-6.69,7.32-6.69,11.58c0,4.26,2.99,5.99,6.69,3.86
					C461.58,85.67,464.57,80.48,464.57,76.22z"/>
				<path class="st38" d="M462.63,77.34c0-3.02-2.12-4.25-4.74-2.74c-2.62,1.51-4.74,5.19-4.74,8.21c0,3.02,2.12,4.25,4.74,2.74
					C460.5,84.04,462.63,80.36,462.63,77.34z"/>
				<path class="st39" d="M458.33,78.59c0-0.96-0.67-1.35-1.51-0.87c-0.83,0.48-1.51,1.65-1.51,2.61s0.67,1.35,1.51,0.87
					C457.65,80.72,458.33,79.55,458.33,78.59z"/>
			</g>
		</g>
	</g>
</g>
<path class="st42" d="M469.06,285.45l-46.84-27.04c-1.18-0.68-2.44-0.82-3.28-0.82c-0.85,0-2.1,0.14-3.28,0.82l-11.77,6.8
	c2.97-5.69,1.95-12.05-3.8-17.54c-1.62-1.54-3.51-2.92-5.62-4.14c-11.93-6.89-30.82-8.48-45.85-3.23l-105.16,36.84
	c-17.67,6.19-23.28,19.52-12.54,29.78c1.62,1.54,3.51,2.92,5.62,4.14c11.93,6.89,30.82,8.48,45.83,3.22l28.86-10.11l11.01,8.18
	l-32.85,18.97c-1.37,0.79-2.16,2.06-2.16,3.47c0,1.41,0.79,2.68,2.16,3.47l46.84,27.04c1.18,0.68,2.44,0.82,3.28,0.82
	c0.85,0,2.1-0.14,3.28-0.82l37.62-21.72c0.01,0,88.64-51.18,88.64-51.18c1.37-0.79,2.16-2.06,2.16-3.47
	C471.22,287.51,470.43,286.24,469.06,285.45z M331.6,306.94l-7.92-7.14l51.61-18.08L331.6,306.94z"/>
<g>
	<path d="M333.57,249.94l2.3,111.98c0,0.61,0.4,1.23,1.21,1.69c1.62,0.94,4.25,0.94,5.86,0c0.81-0.47,1.21-1.08,1.21-1.69
		l-2.3-111.98H333.57z"/>
	<path d="M293.59,222.09l-5.76,111.98c0,0.61,0.4,1.23,1.21,1.69c1.62,0.94,4.25,0.94,5.87,0c0.81-0.47,1.21-1.08,1.21-1.69
		l5.76-111.98H293.59z"/>
	<path d="M458.47,175.24l4.61,111.98c0,0.61,0.4,1.23,1.21,1.69c1.62,0.94,4.25,0.94,5.86,0c0.81-0.47,1.21-1.08,1.21-1.69
		l-4.61-111.98H458.47z"/>
	<path d="M415.03,147.39v111.98c0,0.61,0.4,1.23,1.21,1.69c1.62,0.94,4.25,0.94,5.87,0c0.81-0.47,1.21-1.08,1.21-1.69V147.39H415.03
		z"/>
	<path class="st43" d="M376.6,69.58c-5.95-6.39-11.95-11.46-18.09-12.73l-3.39,34.04c3.7-4.02,8.68-4.13,13.54-1.41
		c4.24,6.14,7.92,8.38,14.68,12.68l11.28-14.83L376.6,69.58z"/>
	<g>
		<g>
			<g>
				<path d="M361.7,234.29c-1.92,4.92-6.16,10.5-3.54,15.04c0,0,5.43,2.65,7.19,6.58c2.88,6.42,9.01,11.14,11.3,12.82
					c9.38,6.85,21.99-2.35,20.12-6.1c-4.65-9.27-17.53-14.07-19.88-24.54l-1.18-9.43l-14.14-1.31L361.7,234.29z"/>
				<path class="st44" d="M377.14,205.62l-0.25,32.47c-1.6,0.93-11.91,6.15-17.28,5.59c-1.37-0.14-2.42-0.66-2.92-1.72
					c-0.27-11.9-7.74-34.75-6.52-49.03c-14.14-13.15-18.97-21.34-31-36.7l-2.56,1.84c-0.3-0.42-0.61-0.83-0.95-1.22
					c-2.86-3.57-5.68-7.19-8.47-10.87l30.87-25.52l1.25-1.03c0.35,0.45,0.7,0.91,1.04,1.36c1.9,2.47,3.75,4.96,5.55,7.49
					c10.94,15.34,20.19,32.05,28.26,53.64C378.38,193.71,377.83,199.94,377.14,205.62z"/>
				<path d="M235.11,280.55c-1.55,4.95-1.86,6.39-1.21,10.07c0.73,1.94,1.48,2.82,2.28,5.5c0.95,3.32,0.81,8.86,5.74,12.17
					c5.88,4.65,17.26,4.86,20.83-0.09c0-2.42-1.6-7.75-4.58-12.07l-5.78-10.74l0.37-10.06l-16.59-3.64L235.11,280.55z"/>
				<path class="st44" d="M339.31,119.42c-0.15,0.38-0.29,0.76-0.45,1.14c-3.58,9.13,0.98,21.54-22.25,37.5
					c-1.14,0.78-2.34,1.57-3.62,2.37c-1.32,0.83-2.69,1.65-4.15,2.49c-7.65,23.21-15.68,44.65-24.66,61.84l-7.07,12.52l-25.03,48.55
					c-11.01,3.16-18.82-1.12-18.48-12.14c1.49-3.83,2.92-7.78,4.32-11.71c6.67-18.75,12.65-37.08,20.85-40.26l11.38-70.56
					c1.66-12.33,3.98-23.56,8.48-31.23c21.11,11.29,43.88,11.43,59.32,0.51C338.4,120.1,338.86,119.77,339.31,119.42z"/>
				<path class="st45" d="M359.61,243.67c-1.37-0.14-2.42-0.66-2.92-1.72c-0.27-11.9-7.74-34.75-6.52-49.03
					c-14.14-13.15-18.97-21.34-31-36.7l-2.56,1.84c-1.14,0.78-2.34,1.57-3.62,2.37l-17.17-13.65
					c-20.88,12.22-23.68,39.48-27.57,71.15l-30.35,44.39l0.01-0.33c6.67-18.75,12.65-37.08,20.85-40.26l11.38-70.56
					c1.66-12.33,3.98-23.56,8.48-31.23c21.11,11.29,43.88,11.43,59.32,0.51l0.13,0.01l0.8,0.12l1.49,0.22
					c1.9,2.47,3.75,4.96,5.55,7.49c-3.46,4.73-8.24,10.05-10.93,13.64c-1.14,19.54,5.55,37.11,21.17,52.39
					C358.67,208.9,362.33,229.61,359.61,243.67z"/>
				
					<linearGradient id="SVGID_00000152952147649233084130000013997020064569544340_" gradientUnits="userSpaceOnUse" x1="277.0947" y1="92.7219" x2="369.702" y2="92.7219">
					<stop  offset="0" style="stop-color:#00ADE3"/>
					<stop  offset="1" style="stop-color:#B00BE6"/>
				</linearGradient>
				<path style="fill:url(#SVGID_00000152952147649233084130000013997020064569544340_);" d="M368.64,79.71
					c-3.25,19.51-22.08,31.78-25.52,41.48c-0.3,0.87-0.49,1.7-0.53,2.53c-22.81,14.66-45.73,14.2-65.5-1.52
					c5.85-17.23,9.22-34.55,18.12-45.6c4.94-6.15,11.59-10.36,21.34-11.56c13.51-12.01,28.85-18.98,50.08-9.61
					C366.63,55.43,371.89,60.19,368.64,79.71z"/>
				<path class="st43" d="M337.66,59.22l-7.33,6.96c-5.18,10.24,2.41,17.73,12.77,21.5c5.88-0.77,8.99-5.45,12.01-10.24
					L337.66,59.22z"/>
				<path class="st47" d="M340.13,71.68c0,0-5,17.3,6.76,19.33c6.56,1.13,17.36-15.18,17.36-15.18L340.13,71.68z"/>
				<path class="st43" d="M340.13,71.68l0.44,3.51c0.33,2.6,1.71,4.96,3.83,6.51c3.73,2.73,11.02,10.09,17.36,3.45
					c2.62-2.75,6.07-14.04,6.07-14.04l2.09-5.12c0.59-7.95,0-15.1-4.55-19.54c-6.47-9.15-14.5-10.13-23.33-7.02
					c-4.11,2.8-6.25,6.67-7.21,11.19v12.52L340.13,71.68z"/>
				<path class="st48" d="M334.82,63.14l6.39,5.94l2.85-3.73c8.79,3.98,23.08,2.21,26.75-4.05c0,0,1.26-2.53,0.35-6.23
					c-0.25-1.01-1.72-6.9-4.46-10.34c-2.74-3.44-6.04-6.75-11.29-8.25c-5.25-1.5-10.17-0.77-14.04,1.04c-3.86,1.81-5.79,4-7.59,7.87
					c-1.79,3.87-1.71,10.01-1.33,13.28c0.38,3.27,2.75,7.97,2.75,7.97L334.82,63.14z"/>
				<path class="st43" d="M339.25,62.56c-0.77-1.12-2.28-1.85-3.53-1.32c-1.29,0.55-1.77,2.14-1.81,3.54
					c-0.08,2.48,0.74,4.99,2.28,6.94c0.41,0.53,0.9,1.03,1.51,1.3c0.61,0.27,1.38,0.28,1.91-0.14c0.53-0.41,0.71-1.13,0.8-1.79
					c0.23-1.59-0.04-3.08-0.11-4.67C340.25,65.08,340.04,63.7,339.25,62.56z"/>
				<path class="st49" d="M343.13,121.19c-0.3,0.87-0.49,1.7-0.53,2.53c-22.81,14.66-45.73,14.2-65.5-1.52
					c5.85-17.23,9.22-34.55,18.12-45.6c-1,6.31,1.14,12.18,5.14,17.78l30.86,23.52L343.13,121.19z"/>
			</g>
		</g>
	</g>
	<g>
		<path class="st34" d="M464.96,171.82l-42.74-24.68c-1.18-0.68-2.44-0.82-3.28-0.82s-2.1,0.14-3.28,0.82l-86.07,49.69l-27.65,15.97
			l-14.7,3.05v7.66c0,1.41,0.79,2.68,2.16,3.47l46.84,27.04c1.18,0.68,2.44,0.82,3.28,0.82c0.85,0,2.1-0.14,3.28-0.82l37.62-21.72
			c0.01,0,88.64-51.18,88.64-51.18c1.37-0.79,2.16-2.06,2.16-3.47V170L464.96,171.82z"/>
		<path class="st39" d="M329.59,189.18l-40.19,23.21c-1.37,0.79-2.16,2.06-2.16,3.47c0,1.41,0.79,2.68,2.16,3.47l46.84,27.04
			c1.18,0.68,2.44,0.82,3.28,0.82c0.85,0,2.1-0.14,3.28-0.82l37.62-21.72c0.01,0,88.64-51.18,88.64-51.18
			c1.37-0.79,2.16-2.06,2.16-3.47c0-1.41-0.79-2.68-2.16-3.47l-46.84-27.04c-1.18-0.68-2.44-0.82-3.28-0.82s-2.1,0.14-3.28,0.82
			L329.59,189.18L329.59,189.18z"/>
		<path class="st34" d="M460.14,165.08l-39.91-23.04c-1.06-0.61-2.77-0.61-3.83,0l-126.43,68.54v5.1c0,0.4,0.26,0.8,0.79,1.1
			l46.84,27.04c1.06,0.61,2.77,0.61,3.83,0c208.19-120.38-55.45,32.01,125.64-72.54c0.53-0.31,0.79-0.71,0.79-1.1v-5.1H460.14z"/>
		<g>
			<path class="st34" d="M383.13,157.11l33.27-19.21c1.06-0.61,2.77-0.61,3.83,0l39.91,23.04h7.72v5.1c0,0.4-0.26,0.8-0.79,1.1
				l-40.19,23.21c-1.06,0.61-2.77,0.61-3.83,0l-46.84-27.04c-0.53-0.31-0.79-0.71-0.79-1.1v-5.1H383.13z"/>
			<path class="st35" d="M376.21,158.22l46.84,27.04c1.06,0.61,2.77,0.61,3.83,0l40.19-23.21c1.06-0.61,1.06-1.6,0-2.21
				l-46.84-27.04c-1.06-0.61-2.77-0.61-3.83,0l-40.19,23.21C375.15,156.62,375.15,157.61,376.21,158.22z"/>
		</g>
		<g>
			<polygon class="st50" points="425.68,189.1 378.43,216.38 328.11,187.33 375.36,160.05 			"/>
			<g>
				<polygon class="st37" points="352.72,194.39 352.17,194.7 337.12,186.01 337.66,185.7 				"/>
				<polygon class="st37" points="353.89,193.71 353.34,194.03 338.29,185.34 338.83,185.02 				"/>
			</g>
			<g>
				<polygon class="st37" points="415.91,189.5 415.36,189.81 400.31,181.12 400.85,180.81 				"/>
				<polygon class="st37" points="417.08,188.82 416.53,189.14 401.48,180.45 402.02,180.13 				"/>
			</g>
			<g>
				<polygon class="st37" points="411.27,192.18 410.72,192.49 395.67,183.8 396.22,183.48 				"/>
				<polygon class="st37" points="412.44,191.5 411.89,191.82 396.84,183.12 397.38,182.81 				"/>
			</g>
			<polygon class="st35" points="363.66,199.19 360.74,200.88 354.96,197.55 357.89,195.86 			"/>
			<g>
				<polygon class="st37" points="358.02,191.33 357.47,191.64 342.42,182.95 342.97,182.64 				"/>
				<polygon class="st37" points="359.19,190.65 358.64,190.97 343.59,182.28 344.14,181.96 				"/>
			</g>
			<polygon class="st34" points="368.96,196.13 366.04,197.82 360.26,194.48 363.19,192.8 			"/>
			<g>
				<polygon class="st37" points="363.32,188.27 362.78,188.58 347.72,179.89 348.27,179.58 				"/>
				<polygon class="st37" points="364.49,187.59 363.95,187.91 348.89,179.22 349.44,178.9 				"/>
			</g>
			<polygon class="st34" points="374.27,193.07 371.34,194.76 365.57,191.42 368.49,189.73 			"/>
			<g>
				<polygon class="st37" points="368.62,185.21 368.08,185.52 353.02,176.83 353.57,176.51 				"/>
				<polygon class="st37" points="369.79,184.53 369.25,184.84 354.19,176.15 354.74,175.84 				"/>
			</g>
			<polygon class="st34" points="379.57,190.01 376.64,191.7 370.87,188.36 373.79,186.67 			"/>
			<g>
				<polygon class="st37" points="373.93,182.14 373.38,182.46 358.33,173.77 358.87,173.45 				"/>
				<polygon class="st37" points="375.1,181.47 374.55,181.78 359.5,173.09 360.04,172.78 				"/>
			</g>
			<polygon class="st34" points="384.87,186.95 381.95,188.63 376.17,185.3 379.09,183.61 			"/>
		</g>
		<g>
			<g>
				<path class="st34" d="M297.69,206.44l33.27-19.21c1.06-0.61,2.77-0.61,3.83,0l39.91,23.04h7.72v5.1c0,0.4-0.26,0.8-0.79,1.1
					l-40.19,23.21c-1.06,0.61-2.77,0.61-3.83,0l-46.84-27.04c-0.53-0.31-0.79-0.71-0.79-1.1v-5.1H297.69z"/>
				<path class="st35" d="M290.76,207.55l46.84,27.04c1.06,0.61,2.77,0.61,3.83,0l40.19-23.21c1.06-0.61,1.06-1.6,0-2.21
					l-46.84-27.04c-1.06-0.61-2.77-0.61-3.83,0l-40.19,23.21C289.71,205.95,289.71,206.94,290.76,207.55z"/>
			</g>
		</g>
		<g>
			<g class="st51">
				<g>
					<polygon class="st52" points="366.68,189.45 368.93,188.14 371.15,190.58 368.9,191.89 					"/>
				</g>
				<g>
					<polygon class="st39" points="368.9,191.89 371.15,190.58 373.12,192.19 370.87,193.49 					"/>
				</g>
				<g>
					<polygon class="st52" points="370.87,193.49 373.12,192.19 373.45,193.1 371.2,194.41 					"/>
				</g>
				<g>
					<polygon class="st34" points="366.68,189.45 368.9,191.89 370.87,193.49 371.2,194.41 366.13,191.49 					"/>
				</g>
			</g>
		</g>
		<g>
			<g class="st51">
				<g>
					<polygon class="st40" points="372.11,186.31 374.36,185 376.58,187.44 374.33,188.75 					"/>
				</g>
				<g>
					<polygon class="st53" points="374.33,188.75 376.58,187.44 378.55,189.05 376.3,190.36 					"/>
				</g>
				<g>
					<polygon class="st54" points="376.3,190.36 378.55,189.05 378.88,189.97 376.63,191.28 					"/>
				</g>
				<g>
					<polygon class="st34" points="372.11,186.31 374.33,188.75 376.3,190.36 376.63,191.28 371.56,188.35 					"/>
				</g>
			</g>
		</g>
		<g>
			<g class="st51">
				<g>
					<polygon class="st52" points="377.54,183.17 379.79,181.87 382.01,184.31 379.76,185.61 					"/>
				</g>
				<g>
					<polygon class="st39" points="379.76,185.61 382.01,184.31 383.98,185.92 381.73,187.22 					"/>
				</g>
				<g>
					<polygon class="st52" points="381.73,187.22 383.98,185.92 384.31,186.83 382.06,188.14 					"/>
				</g>
				<g>
					<polygon class="st34" points="377.54,183.17 379.76,185.61 381.73,187.22 382.06,188.14 376.99,185.21 					"/>
				</g>
			</g>
		</g>
		<g>
			<g class="st51">
				<g>
					<polygon class="st53" points="361.24,193.9 363.49,192.59 365.46,193.25 363.21,194.56 					"/>
				</g>
				<g>
					<polygon class="st54" points="365.43,194.69 367.68,193.38 368.22,196.05 365.97,197.36 					"/>
				</g>
				<g>
					<polygon class="st40" points="363.21,194.56 365.46,193.25 367.68,193.38 365.43,194.69 					"/>
				</g>
				<g>
					<polygon class="st34" points="365.43,194.69 365.97,197.36 360.9,194.43 361.24,193.9 363.21,194.56 					"/>
				</g>
			</g>
		</g>
		<g>
			<polygon class="st34" points="359.19,189.19 354.96,191.63 352.88,190.43 352.88,188.85 357.11,187.99 359.19,188.32 			"/>
			<polygon class="st39" points="359.19,188.32 354.96,190.76 352.88,188.85 357.11,186.41 			"/>
			<polygon class="st50" points="353.8,188.95 357.03,187.08 358.27,188.22 355.03,190.09 			"/>
		</g>
		<g>
			<polygon class="st34" points="357.69,181.89 353.46,184.33 351.38,183.13 351.38,181.55 355.61,180.69 357.69,181.01 			"/>
			<polygon class="st39" points="357.69,181.01 353.46,183.46 351.38,181.55 355.61,179.11 			"/>
			<polygon class="st50" points="352.3,181.65 355.54,179.78 356.77,180.91 353.53,182.78 			"/>
		</g>
		<g>
			<polygon class="st34" points="367.24,181.31 363.01,183.75 360.93,182.55 360.93,180.97 365.16,180.11 367.24,180.44 			"/>
			<polygon class="st39" points="367.24,180.44 363.01,182.88 360.93,180.97 365.16,178.53 			"/>
			<polygon class="st50" points="361.85,181.07 365.09,179.2 366.33,180.33 363.09,182.2 			"/>
		</g>
		<g>
			<polygon class="st34" points="363.51,173.29 359.28,175.73 357.2,174.53 357.2,172.95 361.43,172.09 363.51,172.41 			"/>
			<polygon class="st39" points="363.51,172.41 359.28,174.85 357.2,172.95 361.43,170.51 			"/>
			<polygon class="st50" points="358.12,173.05 361.36,171.18 362.59,172.31 359.36,174.18 			"/>
		</g>
		<g>
			<polygon class="st34" points="410.45,188.73 406.22,191.18 404.14,189.98 404.14,188.39 408.37,187.53 410.45,187.86 			"/>
			<polygon class="st40" points="410.45,187.86 406.22,190.3 404.14,188.39 408.37,185.95 			"/>
			<polygon class="st50" points="405.05,188.5 408.29,186.63 409.53,187.76 406.29,189.63 			"/>
		</g>
		<g>
			<polygon class="st34" points="408.56,182.92 404.33,185.36 402.25,184.16 402.25,182.58 406.48,181.72 408.56,182.05 			"/>
			<polygon class="st39" points="408.56,182.05 404.33,184.49 402.25,182.58 406.48,180.14 			"/>
			<polygon class="st50" points="403.17,182.68 406.41,180.81 407.64,181.94 404.4,183.81 			"/>
		</g>
		<g>
			<g>
				<ellipse class="st34" cx="417.91" cy="156.29" rx="27.66" ry="15.97"/>
				<ellipse class="st55" cx="417.91" cy="154.65" rx="25.77" ry="14.88"/>
				<g>
					<ellipse cx="417.91" cy="153.55" rx="24.82" ry="14.33"/>
					<path class="st37" d="M423.32,150.43c2.99,1.73,2.99,4.52,0,6.25c-2.99,1.73-7.84,1.73-10.83,0c-2.99-1.73-2.99-4.52,0-6.25
						C415.49,148.7,420.33,148.7,423.32,150.43z"/>
					<path class="st56" d="M422.94,150.65c2.78,1.6,2.78,4.2,0,5.8c-2.78,1.6-7.28,1.6-10.05,0c-2.78-1.6-2.78-4.2,0-5.8
						C415.66,149.05,420.16,149.05,422.94,150.65z"/>
					<path class="st37" d="M418.68,153.11c0.43,0.25,0.43,0.65,0,0.89c-0.43,0.25-1.12,0.25-1.55,0c-0.43-0.25-0.43-0.65,0-0.89
						C417.56,152.86,418.26,152.86,418.68,153.11z"/>
					<path class="st57" d="M418.36,151.26c-0.25-0.25-0.65-0.25-0.9,0c-0.12,0.12-0.19,0.29-0.19,0.45v1.85
						c0,0.09,0.06,0.19,0.19,0.26c0.25,0.14,0.65,0.14,0.9,0c0.12-0.07,0.19-0.17,0.19-0.26v-1.85
						C418.55,151.55,418.49,151.39,418.36,151.26z"/>
				</g>
				<path class="st58" d="M425.32,151.41c0.51,0.66,0.79,1.39,0.79,2.15c0,0.72-0.24,1.4-0.7,2.03l13.95,4.4
					c1.84-1.96,2.81-4.16,2.81-6.43c0-2.06-0.8-4.05-2.32-5.87L425.32,151.41z"/>
				<path class="st58" d="M409.71,153.55c0-0.92,0.41-1.8,1.15-2.56l-13.9-4.38c-2.16,2.09-3.32,4.47-3.32,6.94
					c0,1.9,0.69,3.75,1.99,5.45l14.58-3.73C409.89,154.73,409.71,154.15,409.71,153.55z"/>
			</g>
			<path d="M447.72,159.67v1.46c0,1.07,0.71,2.15,2.13,2.97c2.84,1.64,7.44,1.64,10.28,0c1.42-0.82,2.13-1.89,2.13-2.97v-1.46
				H447.72z"/>
			<path class="st55" d="M460.13,156.7c2.84,1.64,2.84,4.29,0,5.93c-2.84,1.64-7.44,1.64-10.28,0c-2.84-1.64-2.84-4.3,0-5.93
				C452.69,155.06,457.29,155.06,460.13,156.7z"/>
			<g>
				<path d="M449.85,157.74v1.75c0,0.76,0.5,1.52,1.51,2.1c2.01,1.16,5.26,1.16,7.27,0c1-0.58,1.51-1.34,1.51-2.1v-1.75H449.85z"/>
				<path class="st59" d="M458.62,155.65c2.01,1.16,2.01,3.04,0,4.2c-2.01,1.16-5.26,1.16-7.27,0c-2.01-1.16-2.01-3.04,0-4.2
					C453.36,154.49,456.62,154.49,458.62,155.65z"/>
			</g>
			<g>
				<path d="M417.02,133.01v2.85c0,0.17,0.11,0.34,0.34,0.47c0.45,0.26,1.17,0.26,1.62,0c0.22-0.13,0.34-0.3,0.34-0.47v-2.85H417.02
					z"/>
				<path class="st56" d="M418.98,132.54c0.45,0.26,0.45,0.68,0,0.94c-0.45,0.26-1.17,0.26-1.62,0c-0.45-0.26-0.45-0.68,0-0.94
					C417.8,132.28,418.53,132.28,418.98,132.54z"/>
			</g>
			<g>
				<path d="M380.97,156.23v1.22c0,0.53,0.35,1.06,1.05,1.47c1.41,0.81,3.69,0.81,5.09,0c0.7-0.41,1.05-0.94,1.05-1.47v-1.22H380.97
					z"/>
				<path class="st56" d="M387.12,154.76c1.41,0.81,1.41,2.13,0,2.94c-1.41,0.81-3.69,0.81-5.09,0c-1.41-0.81-1.41-2.13,0-2.94
					C383.43,153.95,385.71,153.95,387.12,154.76z"/>
			</g>
			<g>
				<polygon class="st37" points="426.88,181.03 424.83,182.21 421.64,180.37 423.69,179.18 				"/>
				<polygon class="st37" points="432.94,177.53 430.89,178.71 427.7,176.87 429.75,175.68 				"/>
				<polygon class="st37" points="435.54,176.03 433.49,177.21 430.29,175.37 432.34,174.18 				"/>
				<polygon class="st39" points="438.13,174.53 436.08,175.71 432.89,173.87 434.94,172.69 				"/>
				<polygon class="st40" points="430.39,179 427.33,180.76 424.14,178.92 427.19,177.16 				"/>
			</g>
			<polygon class="st60" points="414.94,162.36 414.85,161.21 433.71,159.84 450.86,156.92 451.06,158.06 433.85,160.99 			"/>
			<g>
				<g class="st51">
					<g>
						<polygon class="st57" points="462.88,153.4 464.28,156.04 459.24,156.44 457.83,153.81 						"/>
					</g>
					<g>
						<polygon class="st61" points="457.83,153.81 459.24,156.44 457.87,154.56 456.47,151.92 						"/>
					</g>
					<g>
						<polygon class="st60" points="447.45,154.2 448.85,156.84 447.94,158.98 446.53,156.35 						"/>
					</g>
					<g>
						<polygon class="st57" points="456.47,151.92 457.87,154.56 448.85,156.84 447.45,154.2 						"/>
					</g>
					<g>
						<path d="M457.87,154.56l1.36,1.88l5.05-0.4l-0.02,1.89l-3.52,0.59l-8.4,1.4l-3.09,0.51c-0.55-0.61-0.75-0.83-1.31-1.44
							l0.91-2.14L457.87,154.56z"/>
					</g>
				</g>
			</g>
			<g>
				<g class="st51">
					<polygon class="st55" points="417.9,161.56 418.16,159.92 418.16,161.89 417.91,163.52 414.9,163.75 414.89,161.79 					"/>
					<g>
						<polygon class="st55" points="408.85,161.91 408.86,163.06 414.9,163.75 414.89,161.79 						"/>
					</g>
					<g>
						<polygon class="st59" points="415.27,159.39 409.11,160.28 408.85,161.91 414.89,161.79 417.9,161.56 418.16,159.92 						"/>
					</g>
				</g>
			</g>
		</g>
		<g>
			<g>
				<path class="st37" d="M387.25,188.28c-0.82,0.47-0.82,1.24,0,1.71c0.82,0.47,2.14,0.47,2.96,0c0.82-0.47,0.82-1.24,0-1.71
					C389.4,187.81,388.07,187.81,387.25,188.28z"/>
				<path class="st34" d="M386.88,188.8c0,0,0.69-2.96,0.69-2.96h2.33l0.69,2.96c0.07,0.32-0.1,0.66-0.53,0.91
					c-0.73,0.42-1.91,0.42-2.64,0C386.98,189.46,386.81,189.12,386.88,188.8z"/>
				<ellipse class="st37" cx="388.73" cy="185.92" rx="1.17" ry="0.68"/>
			</g>
			<g>
				<path class="st37" d="M381.55,191.57c-0.82,0.47-0.82,1.24,0,1.71c0.82,0.47,2.14,0.47,2.96,0c0.82-0.47,0.82-1.24,0-1.71
					C383.69,191.1,382.36,191.1,381.55,191.57z"/>
				<path class="st34" d="M381.18,192.09c0,0,0.69-2.96,0.69-2.96h2.33l0.69,2.96c0.07,0.32-0.1,0.66-0.53,0.91
					c-0.73,0.42-1.91,0.42-2.64,0C381.28,192.75,381.1,192.41,381.18,192.09z"/>
				<path class="st37" d="M382.2,188.74c-0.46,0.26-0.46,0.69,0,0.96c0.46,0.26,1.2,0.26,1.66,0c0.46-0.26,0.46-0.69,0-0.96
					C383.4,188.47,382.66,188.47,382.2,188.74z"/>
			</g>
			<g>
				<path class="st37" d="M375.84,194.87c-0.82,0.47-0.82,1.24,0,1.71c0.82,0.47,2.14,0.47,2.96,0c0.82-0.47,0.82-1.24,0-1.71
					C377.98,194.4,376.66,194.4,375.84,194.87z"/>
				<path class="st34" d="M375.47,195.39c0,0,0.69-2.96,0.69-2.96h2.33l0.69,2.96c0.07,0.32-0.1,0.66-0.53,0.91
					c-0.73,0.42-1.91,0.42-2.64,0C375.57,196.05,375.4,195.71,375.47,195.39z"/>
				<path class="st37" d="M376.49,192.03c-0.46,0.26-0.46,0.69,0,0.96c0.46,0.26,1.2,0.26,1.66,0c0.46-0.26,0.46-0.69,0-0.96
					C377.69,191.77,376.95,191.77,376.49,192.03z"/>
			</g>
			<g>
				<path class="st37" d="M370.13,198.16c-0.82,0.47-0.82,1.24,0,1.71c0.82,0.47,2.14,0.47,2.96,0c0.82-0.47,0.82-1.24,0-1.71
					C372.27,197.69,370.95,197.69,370.13,198.16z"/>
				<path class="st34" d="M369.76,198.68c0,0,0.69-2.96,0.69-2.96h2.33l0.69,2.96c0.07,0.32-0.1,0.66-0.53,0.91
					c-0.73,0.42-1.91,0.42-2.64,0C369.86,199.34,369.69,199,369.76,198.68z"/>
				<path class="st37" d="M370.78,195.33c-0.46,0.26-0.46,0.69,0,0.96c0.46,0.26,1.2,0.26,1.66,0c0.46-0.26,0.46-0.69,0-0.96
					C371.98,195.06,371.24,195.06,370.78,195.33z"/>
			</g>
			<g>
				<path class="st37" d="M393.72,192.15c-0.82,0.47-0.82,1.24,0,1.71c0.82,0.47,2.14,0.47,2.96,0c0.82-0.47,0.82-1.24,0-1.71
					C395.86,191.68,394.54,191.68,393.72,192.15z"/>
				<path class="st34" d="M393.35,192.67c0,0,0.69-2.96,0.69-2.96h2.33l0.69,2.96c0.07,0.32-0.1,0.66-0.53,0.91
					c-0.73,0.42-1.91,0.42-2.64,0C393.45,193.33,393.28,192.99,393.35,192.67z"/>
				<ellipse class="st37" cx="395.2" cy="189.8" rx="1.17" ry="0.68"/>
			</g>
			<g>
				<path class="st37" d="M388.02,195.45c-0.82,0.47-0.82,1.24,0,1.71c0.82,0.47,2.14,0.47,2.96,0c0.82-0.47,0.82-1.24,0-1.71
					C390.16,194.97,388.83,194.97,388.02,195.45z"/>
				<path class="st34" d="M387.65,195.96c0,0,0.69-2.96,0.69-2.96h2.33l0.69,2.96c0.07,0.32-0.1,0.66-0.53,0.91
					c-0.73,0.42-1.91,0.42-2.64,0C387.75,196.62,387.57,196.29,387.65,195.96z"/>
				<path class="st37" d="M388.67,192.61c-0.46,0.26-0.46,0.69,0,0.96c0.46,0.26,1.2,0.26,1.66,0c0.46-0.26,0.46-0.69,0-0.96
					C389.87,192.35,389.12,192.35,388.67,192.61z"/>
			</g>
			<g>
				<path class="st37" d="M382.31,198.74c-0.82,0.47-0.82,1.24,0,1.71c0.82,0.47,2.14,0.47,2.96,0c0.82-0.47,0.82-1.24,0-1.71
					C384.45,198.27,383.13,198.27,382.31,198.74z"/>
				<path class="st34" d="M381.94,199.26c0,0,0.69-2.96,0.69-2.96h2.33l0.69,2.96c0.07,0.32-0.1,0.66-0.53,0.91
					c-0.73,0.42-1.91,0.42-2.64,0C382.04,199.92,381.86,199.58,381.94,199.26z"/>
				<path class="st39" d="M382.96,195.91c-0.46,0.26-0.46,0.69,0,0.96c0.46,0.26,1.2,0.26,1.66,0c0.46-0.26,0.46-0.69,0-0.96
					C384.16,195.64,383.42,195.64,382.96,195.91z"/>
			</g>
			<g>
				<path class="st37" d="M376.6,202.04c-0.82,0.47-0.82,1.24,0,1.71c0.82,0.47,2.14,0.47,2.96,0c0.82-0.47,0.82-1.24,0-1.71
					C378.74,201.57,377.42,201.57,376.6,202.04z"/>
				<path class="st34" d="M376.23,202.55c0,0,0.69-2.96,0.69-2.96h2.33l0.69,2.96c0.07,0.32-0.1,0.66-0.53,0.91
					c-0.73,0.42-1.91,0.42-2.64,0C376.33,203.21,376.16,202.88,376.23,202.55z"/>
				<path class="st39" d="M377.25,199.2c-0.46,0.26-0.46,0.69,0,0.96c0.46,0.26,1.2,0.26,1.66,0c0.46-0.26,0.46-0.69,0-0.96
					C378.45,198.94,377.71,198.94,377.25,199.2z"/>
			</g>
			<g>
				<path class="st37" d="M400.19,196.02c-0.82,0.47-0.82,1.24,0,1.71c0.82,0.47,2.14,0.47,2.96,0c0.82-0.47,0.82-1.24,0-1.71
					C402.33,195.55,401.01,195.55,400.19,196.02z"/>
				<path class="st34" d="M399.82,196.54c0,0,0.69-2.96,0.69-2.96h2.33l0.69,2.96c0.07,0.32-0.1,0.66-0.53,0.91
					c-0.73,0.42-1.91,0.42-2.64,0C399.92,197.2,399.75,196.86,399.82,196.54z"/>
				<path class="st39" d="M400.84,193.19c-0.46,0.26-0.46,0.69,0,0.96c0.46,0.26,1.2,0.26,1.66,0c0.46-0.26,0.46-0.69,0-0.96
					C402.04,192.92,401.3,192.92,400.84,193.19z"/>
			</g>
			<g>
				<path class="st37" d="M394.48,199.32c-0.82,0.47-0.82,1.24,0,1.71c0.82,0.47,2.14,0.47,2.96,0c0.82-0.47,0.82-1.24,0-1.71
					C396.63,198.85,395.3,198.85,394.48,199.32z"/>
				<path class="st34" d="M394.11,199.84c0,0,0.69-2.96,0.69-2.96h2.33l0.69,2.96c0.07,0.32-0.1,0.66-0.53,0.91
					c-0.73,0.42-1.91,0.42-2.64,0C394.21,200.5,394.04,200.16,394.11,199.84z"/>
				<ellipse class="st39" cx="395.96" cy="196.96" rx="1.17" ry="0.68"/>
			</g>
			<g>
				<path class="st37" d="M388.78,202.61c-0.82,0.47-0.82,1.24,0,1.71c0.82,0.47,2.14,0.47,2.96,0c0.82-0.47,0.82-1.24,0-1.71
					C390.92,202.14,389.59,202.14,388.78,202.61z"/>
				<path class="st34" d="M388.41,203.13c0,0,0.69-2.96,0.69-2.96h2.33l0.69,2.96c0.07,0.32-0.1,0.66-0.53,0.91
					c-0.73,0.42-1.91,0.42-2.64,0C388.51,203.79,388.33,203.45,388.41,203.13z"/>
				<path class="st37" d="M389.43,199.78c-0.46,0.26-0.46,0.69,0,0.96c0.46,0.26,1.2,0.26,1.66,0c0.46-0.26,0.46-0.69,0-0.96
					C390.63,199.51,389.88,199.51,389.43,199.78z"/>
			</g>
			<g>
				<path class="st37" d="M383.07,205.91c-0.82,0.47-0.82,1.24,0,1.71c0.82,0.47,2.14,0.47,2.96,0c0.82-0.47,0.82-1.24,0-1.71
					C385.21,205.44,383.89,205.44,383.07,205.91z"/>
				<path class="st34" d="M382.7,206.43c0,0,0.69-2.96,0.69-2.96h2.33l0.69,2.96c0.07,0.32-0.1,0.66-0.53,0.91
					c-0.73,0.42-1.91,0.42-2.64,0C382.8,207.09,382.62,206.75,382.7,206.43z"/>
				<path class="st37" d="M383.72,203.07c-0.46,0.26-0.46,0.69,0,0.96c0.46,0.26,1.2,0.26,1.66,0c0.46-0.26,0.46-0.69,0-0.96
					C384.92,202.81,384.18,202.81,383.72,203.07z"/>
			</g>
		</g>
		<g>
			<g>
				<ellipse class="st34" cx="332.63" cy="205.79" rx="27.66" ry="15.97"/>
				<ellipse class="st55" cx="332.63" cy="204.15" rx="25.77" ry="14.88"/>
				<g>
					<ellipse cx="332.63" cy="203.06" rx="24.82" ry="14.33"/>
					<path class="st37" d="M338.04,199.93c2.99,1.73,2.99,4.52,0,6.25c-2.99,1.73-7.84,1.73-10.83,0c-2.99-1.73-2.99-4.52,0-6.25
						C330.2,198.21,335.05,198.21,338.04,199.93z"/>
					<path class="st56" d="M337.65,200.16c2.78,1.6,2.78,4.2,0,5.8c-2.78,1.6-7.28,1.6-10.05,0c-2.78-1.6-2.78-4.2,0-5.8
						C330.38,198.56,334.88,198.56,337.65,200.16z"/>
					<path class="st37" d="M333.4,202.61c0.43,0.25,0.43,0.65,0,0.89c-0.43,0.25-1.12,0.25-1.55,0c-0.43-0.25-0.43-0.65,0-0.89
						C332.28,202.37,332.97,202.37,333.4,202.61z"/>
					<path class="st57" d="M333.08,200.77c-0.25-0.25-0.65-0.25-0.9,0c-0.12,0.12-0.19,0.29-0.19,0.45v1.85
						c0,0.09,0.06,0.19,0.19,0.26c0.25,0.14,0.65,0.14,0.9,0c0.12-0.07,0.19-0.17,0.19-0.26v-1.85
						C333.27,201.06,333.2,200.9,333.08,200.77z"/>
				</g>
				<path class="st58" d="M340.04,200.91c0.51,0.66,0.79,1.39,0.79,2.15c0,0.72-0.24,1.4-0.7,2.03l13.95,4.4
					c1.84-1.96,2.81-4.16,2.81-6.43c0-2.06-0.8-4.05-2.32-5.87L340.04,200.91z"/>
				<path class="st58" d="M324.43,203.06c0-0.92,0.41-1.8,1.15-2.56l-13.9-4.38c-2.16,2.09-3.32,4.47-3.32,6.94
					c0,1.9,0.69,3.75,1.99,5.45l14.58-3.73C324.6,204.24,324.43,203.66,324.43,203.06z"/>
			</g>
			<path d="M362.44,209.17v1.46c0,1.07,0.71,2.15,2.13,2.97c2.84,1.64,7.44,1.64,10.28,0c1.42-0.82,2.13-1.89,2.13-2.97v-1.46
				H362.44z"/>
			<path class="st55" d="M374.84,206.21c2.84,1.64,2.84,4.3,0,5.93c-2.84,1.64-7.44,1.64-10.28,0c-2.84-1.64-2.84-4.29,0-5.93
				C367.41,204.57,372.01,204.57,374.84,206.21z"/>
			<g>
				<path d="M364.57,207.25V209c0,0.76,0.5,1.52,1.51,2.1c2.01,1.16,5.26,1.16,7.27,0c1-0.58,1.51-1.34,1.51-2.1v-1.75H364.57z"/>
				<path class="st59" d="M373.34,205.15c2.01,1.16,2.01,3.04,0,4.2c-2.01,1.16-5.26,1.16-7.27,0c-2.01-1.16-2.01-3.04,0-4.2
					C368.08,204,371.33,204,373.34,205.15z"/>
			</g>
			<g>
				<path d="M331.74,182.51v2.85c0,0.17,0.11,0.34,0.34,0.47c0.45,0.26,1.17,0.26,1.62,0c0.22-0.13,0.34-0.3,0.34-0.47v-2.85H331.74
					z"/>
				<path class="st56" d="M333.69,182.04c0.45,0.26,0.45,0.68,0,0.94c-0.45,0.26-1.17,0.26-1.62,0c-0.45-0.26-0.45-0.68,0-0.94
					C332.52,181.79,333.25,181.79,333.69,182.04z"/>
			</g>
			<g>
				<path d="M295.69,205.73v1.22c0,0.53,0.35,1.06,1.05,1.47c1.41,0.81,3.69,0.81,5.09,0c0.7-0.41,1.05-0.94,1.05-1.47v-1.22H295.69
					z"/>
				<path class="st56" d="M301.84,204.26c1.41,0.81,1.41,2.13,0,2.94c-1.41,0.81-3.69,0.81-5.09,0c-1.41-0.81-1.41-2.13,0-2.94
					C298.15,203.45,300.43,203.45,301.84,204.26z"/>
			</g>
			<g>
				<polygon class="st37" points="341.6,230.53 339.55,231.72 336.35,229.87 338.4,228.69 				"/>
				<polygon class="st37" points="347.66,227.04 345.61,228.22 342.41,226.38 344.46,225.19 				"/>
				<polygon class="st37" points="350.25,225.54 348.2,226.72 345.01,224.88 347.06,223.69 				"/>
				<polygon class="st39" points="352.85,224.04 350.8,225.22 347.61,223.38 349.66,222.19 				"/>
				<polygon class="st40" points="345.1,228.51 342.05,230.27 338.86,228.43 341.91,226.67 				"/>
			</g>
			<polygon class="st60" points="329.65,211.87 329.57,210.72 348.43,209.35 365.58,206.43 365.78,207.57 348.57,210.5 			"/>
			<g>
				<g class="st51">
					<g>
						<polygon class="st57" points="377.6,202.91 379,205.55 373.96,205.95 372.55,203.31 						"/>
					</g>
					<g>
						<polygon class="st61" points="372.55,203.31 373.96,205.95 372.59,204.06 371.19,201.43 						"/>
					</g>
					<g>
						<polygon class="st60" points="362.16,203.71 363.57,206.35 362.66,208.49 361.25,205.85 						"/>
					</g>
					<g>
						<polygon class="st57" points="371.19,201.43 372.59,204.06 363.57,206.35 362.16,203.71 						"/>
					</g>
					<g>
						<path d="M372.59,204.06l1.36,1.88l5.05-0.4l-0.02,1.89l-3.52,0.59l-8.4,1.4l-3.09,0.51c-0.55-0.61-0.75-0.83-1.31-1.44
							l0.91-2.14L372.59,204.06z"/>
					</g>
				</g>
			</g>
			<g>
				<g class="st51">
					<polygon class="st55" points="332.62,211.06 332.88,209.43 332.88,211.4 332.63,213.03 329.62,213.26 329.61,211.3 					"/>
					<g>
						<polygon class="st55" points="323.57,211.42 323.57,212.57 329.62,213.26 329.61,211.3 						"/>
					</g>
					<g>
						<polygon class="st59" points="329.99,208.9 323.83,209.79 323.57,211.42 329.61,211.3 332.62,211.06 332.88,209.43 						"/>
					</g>
				</g>
			</g>
		</g>
		<g>
			<g>
				<path class="st34" d="M380.52,175.26v1.92c0,0.93,0.61,1.85,1.84,2.56c2.45,1.41,6.42,1.41,8.87,0
					c1.22-0.71,1.84-1.63,1.84-2.56v-1.92H380.52z"/>
				<path class="st34" d="M391.23,172.7c2.45,1.41,2.45,3.71,0,5.12c-2.45,1.41-6.42,1.41-8.87,0c-2.45-1.41-2.45-3.71,0-5.12
					C384.81,171.29,388.78,171.29,391.23,172.7z"/>
			</g>
			<path class="st56" d="M390.54,173.1c2.07,1.19,2.07,3.13,0,4.32c-2.07,1.19-5.42,1.19-7.49,0c-2.07-1.19-2.07-3.13,0-4.32
				C385.12,171.91,388.47,171.91,390.54,173.1z"/>
			<path class="st37" d="M387.28,176.98c0.27,0.15,0.27,0.4,0,0.56c-0.27,0.15-0.7,0.15-0.97,0c-0.27-0.15-0.27-0.4,0-0.56
				C386.58,176.83,387.01,176.83,387.28,176.98z"/>
		</g>
		<g>
			<g>
				<path class="st34" d="M367.98,168.19v1.92c0,0.93,0.61,1.85,1.84,2.56c2.45,1.41,6.42,1.41,8.87,0
					c1.22-0.71,1.84-1.63,1.84-2.56v-1.92H367.98z"/>
				<path class="st34" d="M378.68,165.63c2.45,1.41,2.45,3.71,0,5.12c-2.45,1.41-6.42,1.41-8.87,0c-2.45-1.41-2.45-3.71,0-5.12
					C372.26,164.22,376.23,164.22,378.68,165.63z"/>
			</g>
			<path class="st56" d="M377.99,166.03c2.07,1.19,2.07,3.13,0,4.32c-2.07,1.19-5.42,1.19-7.49,0c-2.07-1.19-2.07-3.13,0-4.32
				C372.57,164.84,375.93,164.84,377.99,166.03z"/>
			<path class="st37" d="M377.03,165.96c0.27,0.15,0.27,0.4,0,0.56c-0.27,0.15-0.7,0.15-0.97,0c-0.27-0.15-0.27-0.4,0-0.56
				C376.33,165.8,376.76,165.8,377.03,165.96z"/>
		</g>
	</g>
	<path class="st43" d="M406.09,129.47l0.68,1.22l-0.21,5.86l1.81,4.13l0.93,2.56l2.27,2.51c1.17,1.04,2.26-0.36,1.56-2.06
		l-1.48-2.64l0.08-2.76c1.56-0.75,3.13-0.59,4.7,0.44c0,0,1.05,3.4,1.08,3.56c0.03,0.16,0.71,3.28,0.71,3.28
		c0.4,2.69,2.48,2.49,2.42,0.29l-0.55-3.98l-0.33-3.08l2.42,3.82l1.22,3.27c0.78,1.87,2.55,1.69,2.26-0.05l-0.86-3.01l-1.06-2.94
		l2.42,2.79l0.74,2.53c0.22,0.74,0.75,1.47,1.52,1.53c0.72,0,1.04-0.76,0.72-1.41c0.46-0.28,0.36-1.19,0.15-1.68l-2-3.87l-6.45-6.87
		l-6.23-5.02l-1.68-2.64C410.49,122.71,404.91,126.85,406.09,129.47z"/>
	<path class="st43" d="M400.88,93.5l-6.26-6.17l-11.28,14.83c2.1,1.33,4.48,2.86,7.28,4.77c6.08,9.2,9.36,13.64,16.15,23.76
		c1.15-2.88,5.16-4.9,7.83-2.79C411.04,112.44,409.42,101.96,400.88,93.5z"/>
	<path class="st43" d="M318.11,165.53l2.67,6.51c2.63,4.51,5.83,6.53,9.18,7.92l2.56,3.86l1.1,4.9c0.94,3.14,2.41,2,2.3-0.31
		l-0.43-3.06l-1.52-4.88l1.44-0.24l2.26,1.82l2.84,3.56l0.52,1.47c0.29,0.8,1.06,1.32,1.92,1.28l0.21-0.01l0.29,0.34
		c0.45,0.52,1.22,0.6,1.76,0.18c0.59-0.45,0.89-1.19,0.78-1.92l-0.52-3.37l-1.94-3.7l2.24,1.39l1.36,2.19l0.63,2.08
		c0.76,2.07,2.18,1.08,2.22-0.66l-0.56-2.91l-2.76-4.66l-5.51-4.53l-12.02-4.85l-4.07-5.26
		C322.38,158.8,316.23,162.21,318.11,165.53z"/>
	<path class="st43" d="M297.38,87.27l-0.4,39.58c0.11,6.14,0.26,9.84,6.71,19.09c7.4,12.86,12.97,19.51,17.48,26.76
		c0.67-2.83,4.2-6.1,7.95-4.76L314,131.31l5.8-30.95C323.73,77.74,298.17,62.84,297.38,87.27z"/>
	<g>
		<g>
			<path d="M327.39,62.25c0.4-5.9,5.02-8.57,10.33-5.97c5.31,2.61,9.29,9.51,8.9,15.41c-0.4,5.9-5.02,8.57-10.33,5.97
				C330.98,75.05,327,68.15,327.39,62.25z"/>
			<path class="st34" d="M339.14,77.59l1.07-0.62c1.31-0.76,2.13-2.38,2.13-4.7c0-4.63-3.25-10.26-7.26-12.57
				c-2-1.16-3.82-1.27-5.13-0.51l-1.07,0.62L339.14,77.59z"/>
			<path class="st35" d="M326.75,64.51c0-4.63,3.25-6.5,7.26-4.19c4.01,2.31,7.26,7.94,7.26,12.57c0,4.63-3.25,6.5-7.26,4.19
				C330,74.77,326.75,69.14,326.75,64.51z"/>
		</g>
		<g>
			<path class="st55" d="M355.13,48.29c0-4.63,3.25-6.5,7.26-4.19c4.01,2.31,7.26,7.94,7.26,12.57c0,4.63-3.25,6.5-7.26,4.19
				C358.38,58.54,355.13,52.92,355.13,48.29z"/>
			<g>
				<path class="st34" d="M368.97,59.15l1.68-0.97c1.16-0.67,1.88-2.11,1.88-4.15c0-4.09-2.87-9.07-6.42-11.11
					c-1.77-1.02-3.38-1.12-4.54-0.45l-1.68,0.97L368.97,59.15z"/>
				<path class="st35" d="M370.85,55c0,4.09-2.87,5.75-6.42,3.7c-3.55-2.04-6.41-7.02-6.41-11.11c0-3.68,2.33-5.39,5.38-4.2
					c0.34,0.13,0.68,0.3,1.04,0.5c1.9,1.09,3.61,3.04,4.78,5.23C370.23,51.01,370.85,53.1,370.85,55z"/>
			</g>
			<path d="M351.28,48.62c0.4-5.9,5.02-8.57,10.33-5.97c5.31,2.61,9.29,9.51,8.9,15.41c-0.4,5.9-5.02,8.57-10.33,5.97
				C354.87,61.42,350.89,54.52,351.28,48.62z"/>
			<path d="M363.03,63.96l1.07-0.62c1.31-0.76,2.13-2.38,2.13-4.7c0-4.63-3.25-10.26-7.26-12.57c-2-1.16-3.82-1.27-5.13-0.51
				l-1.07,0.62L363.03,63.96z"/>
			<path class="st35" d="M358.35,46.47c0.28,0.12,0.57,0.26,0.86,0.43c3.54,2.05,6.41,7.02,6.42,11.11c0,0.34-0.02,0.66-0.06,0.96
				c-0.42,3.38-3.11,4.62-6.36,2.75c-3.54-2.05-6.41-7.02-6.42-11.11C352.8,46.85,355.22,45.15,358.35,46.47z"/>
			<path class="st62" d="M358.35,46.47c0.28,0.12,0.57,0.26,0.86,0.43c3.54,2.05,6.41,7.02,6.42,11.11c0,0.34-0.02,0.66-0.06,0.96
				c-0.91,1.3-2.62,1.54-4.58,0.41c-2.92-1.68-5.29-5.78-5.29-9.15C355.71,47.97,356.77,46.61,358.35,46.47z"/>
		</g>
		<g>
			<path d="M369.22,49.12c-1.17-2.2-2.88-4.14-4.78-5.23c-0.35-0.2-0.7-0.37-1.04-0.5c0.06-4.09-1.82-7.43-3.33-9.5
				c-2.38-0.23-5.1,0.43-7.99,2.09c-9.04,5.22-17.13,17.99-17.54,29.41l-0.84,0.49l-4.85-2.82c0.41-12.76,6.75-26.78,16.94-32.66
				c4.8-2.77,8.92-3.04,11.98-1.26l6.27,3.65C369.47,35.92,369.39,46.32,369.22,49.12z"/>
			<path class="st57" d="M357.78,29.14c-3.06-1.78-7.18-1.52-11.98,1.25c-10.2,5.89-16.53,19.9-16.94,32.66l4.84,2.82
				c0.41-12.76,8.18-25.95,18.38-31.83c4.8-2.77,8.92-3.03,11.98-1.25L357.78,29.14z"/>
		</g>
		<g>
			<path class="st34" d="M335.32,78.42l1.68-0.97c1.16-0.67,1.88-2.11,1.88-4.15c0-4.09-2.87-9.07-6.42-11.11
				c-1.77-1.02-3.38-1.12-4.54-0.45l-1.68,0.97L335.32,78.42z"/>
			<ellipse transform="matrix(0.866 -0.5 0.5 0.866 9.0364 174.8462)" class="st35" cx="330.79" cy="70.56" rx="5.24" ry="9.07"/>
		</g>
		<path class="st37" d="M325.19,68.69c0-2.82,1.98-3.96,4.41-2.55c2.44,1.41,4.41,4.83,4.41,7.65c0,2.82-1.98,3.96-4.41,2.55
			C327.17,74.93,325.19,71.51,325.19,68.69z"/>
	</g>
	<path class="st48" d="M371.14,55.08c-0.25-1.01-1.72-6.9-4.46-10.34c-2.74-3.44-6.04-6.75-11.29-8.25
		c-0.66-0.19-1.31-0.34-1.96-0.46c-6.02,5.73-2.64,18.86,0,31.41c7.31,0.34,14.84-1.84,17.36-6.13
		C370.8,61.31,372.06,58.78,371.14,55.08z"/>
</g>
<g>
	<g>
		<polygon class="st34" points="178.97,388.17 130.39,360.12 130.39,266.78 178.97,294.83 		"/>
		<polygon class="st35" points="264.25,338.94 178.97,388.17 178.97,294.83 264.25,245.6 		"/>
		<polygon class="st34" points="182.7,311.71 260.52,266.78 260.52,336.79 182.7,381.71 		"/>
		<polygon class="st36" points="215.66,217.55 264.25,245.6 178.97,294.83 130.39,266.78 		"/>
		<g>
			
				<ellipse transform="matrix(0.5 -0.866 0.866 0.5 -170.0018 354.0417)" class="st37" cx="221.61" cy="324.25" rx="34.95" ry="20.18"/>
			
				<ellipse transform="matrix(0.5 -0.866 0.866 0.5 -170.0018 354.0428)" class="st38" cx="221.61" cy="324.25" rx="24.77" ry="14.3"/>
			<path class="st39" d="M223.24,318.76c0-3.55-2.49-4.99-5.57-3.21c-3.07,1.77-5.57,6.09-5.57,9.64s2.49,4.99,5.57,3.21
				C220.75,326.63,223.24,322.31,223.24,318.76z"/>
		</g>
		<g>
			<path class="st36" d="M257.93,280.79c0-4.64-3.26-6.52-7.28-4.2c-4.02,2.32-7.28,7.96-7.28,12.6c0,4.64,3.26,6.52,7.28,4.2
				C254.67,291.07,257.93,285.43,257.93,280.79z"/>
			<path class="st34" d="M255.81,282.01c0-3.29-2.31-4.62-5.16-2.98c-2.85,1.64-5.16,5.64-5.16,8.93s2.31,4.62,5.16,2.98
				C253.5,289.3,255.81,285.3,255.81,282.01z"/>
			<path class="st39" d="M251.13,283.37c0-1.05-0.73-1.47-1.64-0.95c-0.91,0.52-1.64,1.79-1.64,2.84c0,1.05,0.73,1.47,1.64,0.95
				C250.4,285.69,251.13,284.42,251.13,283.37z"/>
		</g>
		<g>
			<path class="st37" d="M204.92,292.51c-1.31,0.76-2.38,0.14-2.38-1.37c0-1.52,1.06-3.36,2.38-4.12c1.31-0.76,2.38-0.14,2.38,1.37
				C207.3,289.91,206.24,291.75,204.92,292.51z"/>
			<path class="st34" d="M203.91,292.61c0,0,4.67,1.43,4.67,1.43l1.87-3.23l-3.57-3.34c-0.39-0.36-1-0.39-1.69,0.01
				c-1.17,0.68-2.12,2.32-2.12,3.67C203.07,291.94,203.4,292.46,203.91,292.61z"/>
			<path class="st37" d="M209.39,293.89c-0.74,0.42-1.33,0.08-1.33-0.77s0.6-1.88,1.33-2.31c0.74-0.42,1.33-0.08,1.33,0.77
				C210.72,292.43,210.13,293.46,209.39,293.89z"/>
		</g>
		<g>
			<path class="st37" d="M195.76,297.81c-1.31,0.76-2.38,0.14-2.38-1.37c0-1.52,1.06-3.36,2.38-4.12c1.31-0.76,2.38-0.14,2.38,1.37
				C198.13,295.2,197.07,297.05,195.76,297.81z"/>
			<path class="st34" d="M194.74,297.9c0,0,4.67,1.43,4.67,1.43l1.87-3.23l-3.57-3.34c-0.39-0.36-1-0.39-1.69,0.01
				c-1.17,0.68-2.12,2.32-2.12,3.67C193.9,297.24,194.23,297.75,194.74,297.9z"/>
			<path class="st37" d="M200.22,299.18c-0.74,0.42-1.33,0.08-1.33-0.77s0.6-1.88,1.33-2.31c0.74-0.42,1.33-0.08,1.33,0.77
				S200.96,298.75,200.22,299.18z"/>
		</g>
		<g>
			<path class="st37" d="M186.59,303.1c-1.31,0.76-2.38,0.14-2.38-1.37c0-1.52,1.06-3.36,2.38-4.12c1.31-0.76,2.38-0.14,2.38,1.37
				C188.96,300.5,187.9,302.34,186.59,303.1z"/>
			<path class="st34" d="M185.57,303.2c0,0,4.67,1.43,4.67,1.43l1.87-3.23l-3.57-3.34c-0.39-0.36-1-0.39-1.69,0.01
				c-1.17,0.68-2.12,2.32-2.12,3.67C184.74,302.53,185.06,303.04,185.57,303.2z"/>
			<path class="st37" d="M191.05,304.47c-0.74,0.42-1.33,0.08-1.33-0.77s0.6-1.88,1.33-2.31c0.74-0.42,1.33-0.08,1.33,0.77
				S191.79,304.05,191.05,304.47z"/>
		</g>
		<g>
			<polygon class="st39" points="242.1,266.63 238.81,268.53 238.81,274.45 242.1,272.55 			"/>
			<polygon class="st37" points="251.84,261.01 248.54,262.91 248.54,268.83 251.84,266.93 			"/>
			<polygon class="st37" points="256.01,258.6 252.72,260.5 252.72,266.42 256.01,264.52 			"/>
			<polygon class="st40" points="260.18,256.19 256.89,258.09 256.89,264.01 260.18,262.11 			"/>
		</g>
	</g>
	<g>
		<g>
			<polygon class="st34" points="209.37,260.82 177.45,242.39 177.45,181.07 209.37,199.49 			"/>
			<polygon class="st35" points="241.29,242.39 209.37,260.82 209.37,199.49 241.29,181.07 			"/>
			<polygon class="st34" points="211.82,200.91 238.84,185.31 238.84,240.98 211.82,256.58 			"/>
			<polygon class="st41" points="209.37,162.64 241.29,181.07 209.37,199.49 177.45,181.07 			"/>
			<g>
				
					<ellipse transform="matrix(0.5 -0.866 0.866 0.5 -85.3156 310.3848)" class="st37" cx="226.14" cy="229.08" rx="15.63" ry="9.02"/>
				<path class="st38" d="M233.98,224.55c0-5-3.51-7.02-7.83-4.52c-4.33,2.5-7.83,8.57-7.83,13.57c0,5,3.51,7.02,7.83,4.52
					C230.47,235.63,233.98,229.55,233.98,224.55z"/>
				<path class="st39" d="M226.87,226.62c0-1.59-1.11-2.23-2.49-1.44c-1.37,0.79-2.49,2.72-2.49,4.31c0,1.59,1.11,2.23,2.49,1.44
					C225.76,230.14,226.87,228.21,226.87,226.62z"/>
			</g>
			<g>
				<path class="st37" d="M232.83,201.79c0-4.26-2.99-5.99-6.69-3.86c-3.69,2.13-6.69,7.32-6.69,11.58s2.99,5.99,6.69,3.86
					C229.84,211.24,232.83,206.05,232.83,201.79z"/>
				<path class="st38" d="M230.88,202.91c0-3.02-2.12-4.25-4.74-2.74c-2.62,1.51-4.74,5.19-4.74,8.21s2.12,4.25,4.74,2.74
					C228.76,209.61,230.88,205.93,230.88,202.91z"/>
				<path class="st39" d="M226.58,204.16c0-0.96-0.67-1.35-1.51-0.87c-0.83,0.48-1.51,1.65-1.51,2.61c0,0.96,0.67,1.35,1.51,0.87
					C225.91,206.29,226.58,205.12,226.58,204.16z"/>
			</g>
		</g>
		<g>
			<polygon class="st34" points="172.74,281.92 140.82,263.49 140.82,202.16 172.74,220.59 			"/>
			<polygon class="st35" points="204.66,263.49 172.74,281.92 172.74,220.59 204.66,202.16 			"/>
			<polygon class="st34" points="175.19,222.01 202.21,206.41 202.21,262.08 175.19,277.67 			"/>
			<polygon class="st41" points="172.74,183.74 204.66,202.16 172.74,220.59 140.82,202.16 			"/>
			<g>
				<path class="st37" d="M200.57,243.8c0-7.05-4.95-9.9-11.05-6.38c-6.1,3.52-11.05,12.09-11.05,19.14c0,7.05,4.95,9.9,11.05,6.38
					C195.62,259.41,200.57,250.84,200.57,243.8z"/>
				
					<ellipse transform="matrix(0.5 -0.866 0.866 0.5 -121.8994 289.2185)" class="st38" cx="189.52" cy="250.18" rx="11.08" ry="6.4"/>
				<path class="st39" d="M190.25,247.72c0-1.59-1.11-2.23-2.49-1.44c-1.37,0.79-2.49,2.72-2.49,4.31c0,1.59,1.11,2.23,2.49,1.44
					C189.13,251.24,190.25,249.31,190.25,247.72z"/>
			</g>
			<g>
				
					<ellipse transform="matrix(0.5 -0.866 0.866 0.5 -101.6071 277.5025)" class="st37" cx="189.52" cy="226.75" rx="9.46" ry="5.46"/>
				<path class="st38" d="M194.26,224.01c0-3.02-2.12-4.25-4.74-2.74c-2.62,1.51-4.74,5.19-4.74,8.21s2.12,4.25,4.74,2.74
					C192.14,230.71,194.26,227.03,194.26,224.01z"/>
				<path class="st39" d="M189.96,225.26c0-0.96-0.67-1.35-1.51-0.87c-0.83,0.48-1.51,1.65-1.51,2.61s0.67,1.35,1.51,0.87
					C189.29,227.39,189.96,226.22,189.96,225.26z"/>
			</g>
		</g>
	</g>
</g>
<linearGradient id="SVGID_00000074439179176484392110000009096984034677557674_" gradientUnits="userSpaceOnUse" x1="420.3415" y1="425.3778" x2="420.3415" y2="424.7344">
	<stop  offset="0" style="stop-color:#FFFFFF"/>
	<stop  offset="0.3751" style="stop-color:#FDFDFE"/>
	<stop  offset="0.5102" style="stop-color:#F7F6F9"/>
	<stop  offset="0.6065" style="stop-color:#EBEBF0"/>
	<stop  offset="0.6844" style="stop-color:#DADAE3"/>
	<stop  offset="0.7512" style="stop-color:#C5C4D3"/>
	<stop  offset="0.8103" style="stop-color:#AAA8BE"/>
	<stop  offset="0.8637" style="stop-color:#8A88A6"/>
	<stop  offset="0.9129" style="stop-color:#65628A"/>
	<stop  offset="0.9566" style="stop-color:#3D396B"/>
	<stop  offset="0.996" style="stop-color:#120D4A"/>
</linearGradient>
<path style="opacity:0.5;fill:url(#SVGID_00000074439179176484392110000009096984034677557674_);" d="M419.69,425.38
	c0,0,0.51-0.24,1.31-0.64C420.31,425.05,419.85,425.27,419.69,425.38z"/>
<g>
	<g>
		<g>
			<g>
				<text transform="matrix(1 0 0 1 761.8651 110.8043)" class="st64 st65 st66">SVG</text>
			</g>
		</g>
	</g>
	<g>
		<g>
			<g>
				<text transform="matrix(1 0 0 1 765.1239 136.3218)"><tspan x="0" y="0" class="st67 st65 st68">music</tspan><tspan x="99.62" y="0" class="st69 st65 st68">MIXER</tspan></text>
			</g>
		</g>
	</g>
	<g>
		
			<linearGradient id="SVGID_00000094608695991548515770000002512955348403216824_" gradientUnits="userSpaceOnUse" x1="645.5002" y1="104.237" x2="750.2289" y2="104.237">
			<stop  offset="0" style="stop-color:#00ADE3"/>
			<stop  offset="1" style="stop-color:#B00BE6"/>
		</linearGradient>
		<path style="fill:url(#SVGID_00000094608695991548515770000002512955348403216824_);" d="M750.2,104.58
			c-0.28-8.76-1.95-17.77-6.24-25.87c-2.14-4.02-4.89-7.82-8.33-10.92c-3.42-3.12-7.35-5.61-11.5-7.53
			c-8.42-3.62-17.46-4.91-26.26-4.94c-8.8,0.03-17.84,1.32-26.26,4.94c-4.15,1.93-8.09,4.41-11.5,7.53
			c-3.44,3.1-6.19,6.9-8.33,10.92c-4.29,8.1-5.97,17.11-6.24,25.87c-0.11,4.4,0.12,8.78,0.63,13.11c0.43,3.71,1.05,7.33,1.96,10.99
			v12.66c0,6.53,5.29,11.82,11.82,11.82s11.82-5.29,11.82-11.82v-20.28c0-6.53-5.29-11.82-11.82-11.82c-3.72,0-7.03,1.72-9.2,4.4
			c-0.1-2.95-0.07-5.89,0.13-8.82c0.53-8.19,2.38-16.31,6.23-23.22c0.94-1.74,2.08-3.35,3.26-4.9l1.9-2.23l2.1-2.03
			c2.92-2.59,6.27-4.64,9.87-6.26c7.3-3.05,15.44-4.28,23.64-4.26c8.2-0.02,16.35,1.2,23.64,4.26c3.59,1.62,6.95,3.68,9.87,6.26
			l2.1,2.03l1.9,2.23c1.19,1.55,2.32,3.16,3.26,4.9c3.85,6.92,5.7,15.03,6.23,23.22c0.2,2.92,0.24,5.87,0.13,8.82
			c-2.17-2.68-5.48-4.4-9.2-4.4c-6.53,0-11.82,5.29-11.82,11.82v20.28c0,6.53,5.29,11.82,11.82,11.82s11.82-5.29,11.82-11.82v-12.66
			c0.91-3.66,1.53-7.28,1.96-10.99C750.08,113.36,750.32,108.98,750.2,104.58z"/>
		
			<linearGradient id="SVGID_00000103964797200040033220000009547891443614397099_" gradientUnits="userSpaceOnUse" x1="738.2422" y1="97.6112" x2="666.3184" y2="97.6112">
			<stop  offset="0" style="stop-color:#00ADE3"/>
			<stop  offset="1" style="stop-color:#B00BE6"/>
		</linearGradient>
		<path style="fill:url(#SVGID_00000103964797200040033220000009547891443614397099_);" d="M656.87,96.63
			c1.83-0.23,5.3,0.02,7.04-0.96c2.17-1.22,2.22-5.53,2.99-7.55c1.34-3.5,4.89-5.58,8.53-3.69c2.18,1.13,2.92,3.3,3.73,5.44
			c1.75,4.66,3.2,9.46,5.07,14.07c1.31,3.22,2.56,0.52,3.56-1.56c2.58-5.34,6.46-18.98,14.48-15.8c3.51,1.39,4.72,6.24,6.22,9.39
			c1.95,4.09,4.45-0.06,6.34-2.28c2.86-3.36,7.16-7.31,11.04-2.44c0.75,0.94,1.13,2.15,1.85,3.1c1.85,2.44,5.66,1.79,8.46,1.99
			c0.33,0.02,3.99-0.15,3.01,1.13c-0.51,0.66-4.94,0.49-5.68,0.54c-3.19,0.21-5.87,0.56-8.1-2.14c-1.88-2.29-3.44-4.99-6.02-1.66
			c-2.54,3.27-4.94,8.94-9.92,8.36c-4.11-0.48-5.47-4.6-7.1-7.76c-0.67-1.3-1.58-4.47-3.43-2.81c-0.67,0.6-1.18,2.57-1.54,3.35
			c-1.39,3-2.82,5.98-4.23,8.98c-0.71,1.51-1.33,3.3-2.36,4.61c-2.35,3.01-6.86,3.45-9.72,0.9c-3.09-2.74-3.99-9.34-5.11-12.97
			c-0.67-2.18-1.19-4.49-1.99-6.63c-1.69-4.52-3.89,0.19-4.93,2.58c-1.16,2.66-2.32,5.19-5.63,5.39c-0.84,0.05-1.75-0.14-2.59-0.23
			c-0.88-0.09-1.79-0.15-2.67-0.29C659.23,97.85,654.73,96.9,656.87,96.63z"/>
	</g>
</g>
</svg>
